<?xml version="1.0" encoding="UTF-8" standalone="no"?><!-- Generator: Gravit.io --><svg xmlns="http://www.w3.org/2000/svg" xmlns:xlink="http://www.w3.org/1999/xlink" style="isolation:isolate" viewBox="0 0 512 512" width="512pt" height="512pt"><defs><clipPath id="_clipPath_z1MEEFAR1q83WlH1CqEIBKBjlmMsiYOr"><rect width="512" height="512"/></clipPath></defs><g clip-path="url(#_clipPath_z1MEEFAR1q83WlH1CqEIBKBjlmMsiYOr)"><g><g><path d=" M 157.662 102.614 C 153.235 102.614 149.645 106.203 149.645 110.631 C 149.645 120.356 141.733 128.268 132.008 128.268 C 122.283 128.268 114.371 120.356 114.371 110.631 C 114.371 100.906 122.283 92.994 132.008 92.994 C 136.435 92.994 140.025 89.405 140.025 84.977 C 140.025 80.549 136.436 76.96 132.008 76.96 C 113.442 76.96 98.338 92.065 98.338 110.63 C 98.338 129.195 113.443 144.3 132.008 144.3 C 150.573 144.3 165.678 129.195 165.678 110.63 C 165.679 106.203 162.089 102.614 157.662 102.614 Z " fill="rgb(3,94,140)"/></g></g><g><g><path d=" M 157.662 196.676 C 153.235 196.676 149.645 200.265 149.645 204.693 C 149.645 214.418 141.733 222.33 132.008 222.33 C 122.283 222.33 114.371 214.418 114.371 204.693 C 114.371 194.968 122.283 187.056 132.008 187.056 C 136.435 187.056 140.025 183.467 140.025 179.039 C 140.025 174.611 136.436 171.022 132.008 171.022 C 113.442 171.022 98.338 186.127 98.338 204.692 C 98.338 223.257 113.443 238.362 132.008 238.362 C 150.573 238.362 165.678 223.257 165.678 204.692 C 165.679 200.266 162.089 196.676 157.662 196.676 Z " fill="rgb(3,94,140)"/></g></g><g><g><path d=" M 251.724 213.779 L 191.866 213.779 C 187.439 213.779 183.849 217.368 183.849 221.796 C 183.849 226.224 187.438 229.813 191.866 229.813 L 251.724 229.813 C 256.151 229.813 259.741 226.224 259.741 221.796 C 259.741 217.368 256.152 213.779 251.724 213.779 Z " fill="rgb(3,94,140)"/></g></g><g><g><path d=" M 251.724 179.574 L 191.866 179.574 C 187.439 179.574 183.849 183.163 183.849 187.591 C 183.849 192.019 187.438 195.608 191.866 195.608 L 251.724 195.608 C 256.151 195.608 259.741 192.019 259.741 187.591 C 259.741 183.163 256.152 179.574 251.724 179.574 Z " fill="rgb(3,94,140)"/></g></g><g><g><path d=" M 234.622 307.841 L 191.866 307.841 C 187.439 307.841 183.849 311.43 183.849 315.858 C 183.849 320.286 187.438 323.875 191.866 323.875 L 234.622 323.875 C 239.049 323.875 242.639 320.286 242.639 315.858 C 242.639 311.43 239.049 307.841 234.622 307.841 Z " fill="rgb(3,94,140)"/></g></g><g><g><path d=" M 251.724 273.637 L 191.866 273.637 C 187.439 273.637 183.849 277.226 183.849 281.654 C 183.849 286.082 187.438 289.671 191.866 289.671 L 251.724 289.671 C 256.151 289.671 259.741 286.082 259.741 281.654 C 259.741 277.226 256.152 273.637 251.724 273.637 Z " fill="rgb(3,94,140)"/></g></g><g><g><path d=" M 328.685 119.716 L 191.866 119.716 C 187.439 119.716 183.849 123.305 183.849 127.733 C 183.849 132.161 187.438 135.75 191.866 135.75 L 328.684 135.75 C 333.111 135.75 336.701 132.161 336.701 127.733 C 336.701 123.305 333.112 119.716 328.685 119.716 Z " fill="rgb(3,94,140)"/></g></g><g><g><path d=" M 294.48 85.511 L 191.866 85.511 C 187.439 85.511 183.849 89.1 183.849 93.528 C 183.849 97.956 187.438 101.545 191.866 101.545 L 294.48 101.545 C 298.907 101.545 302.497 97.956 302.497 93.528 C 302.497 89.1 298.908 85.511 294.48 85.511 Z " fill="rgb(3,94,140)"/></g></g><g><g><path d=" M 157.662 290.739 C 153.235 290.739 149.645 294.328 149.645 298.756 C 149.645 308.481 141.733 316.393 132.008 316.393 C 122.283 316.393 114.371 308.481 114.371 298.756 C 114.371 289.031 122.283 281.119 132.008 281.119 C 136.435 281.119 140.025 277.53 140.025 273.102 C 140.025 268.674 136.436 265.085 132.008 265.085 C 113.442 265.085 98.338 280.19 98.338 298.755 C 98.338 317.32 113.443 332.425 132.008 332.425 C 150.573 332.425 165.678 317.32 165.678 298.755 C 165.679 294.328 162.089 290.739 157.662 290.739 Z " fill="rgb(3,94,140)"/></g></g><g><g><path d=" M 362.889 0 L 72.15 0 C 58.3 0 47.031 11.268 47.031 25.119 L 47.031 384.267 C 47.031 398.118 58.299 409.386 72.15 409.386 L 217.52 409.386 C 221.947 409.386 225.537 405.797 225.537 401.369 C 225.537 396.942 221.948 393.352 217.52 393.352 L 72.15 393.352 C 67.14 393.352 63.064 389.276 63.064 384.266 L 63.064 25.119 C 63.064 20.109 67.14 16.033 72.15 16.033 L 362.889 16.033 C 367.899 16.033 371.975 20.109 371.975 25.119 L 371.975 290.206 C 371.975 294.633 375.564 298.223 379.992 298.223 C 384.419 298.223 388.009 294.634 388.009 290.206 L 388.009 25.119 C 388.008 11.268 376.74 0 362.889 0 Z " fill="rgb(3,94,140)"/></g></g><g><g><path d=" M 438.578 325.094 C 431.127 324.351 423.68 326.463 417.786 330.938 C 413.091 323.06 405.085 317.471 395.822 316.543 C 388.369 315.801 380.923 317.913 375.03 322.387 C 370.335 314.509 362.329 308.92 353.066 307.992 C 347.376 307.424 341.694 308.52 336.701 311.061 L 336.701 208.969 C 336.701 200.68 333.175 192.734 327.024 187.169 C 320.879 181.609 312.598 178.895 304.303 179.725 C 289.504 181.207 277.912 194.588 277.912 210.189 L 277.912 312.539 L 254.346 336.105 C 241.823 348.628 236.768 366.396 240.825 383.636 L 258.716 459.673 C 265.965 490.484 293.134 512.002 324.786 512.002 L 397.093 512.002 C 434.519 512.002 464.968 481.554 464.968 444.127 L 464.968 355.56 C 464.969 339.957 453.377 326.576 438.578 325.094 Z  M 448.935 444.125 C 448.935 472.71 425.679 495.966 397.094 495.966 L 324.787 495.966 C 300.612 495.966 279.86 479.531 274.323 455.998 L 256.432 379.961 C 253.656 368.166 257.115 356.008 265.683 347.44 L 277.912 335.211 L 277.912 362.889 C 277.912 367.316 281.501 370.906 285.929 370.906 C 290.357 370.906 293.946 367.317 293.946 362.889 L 293.946 210.188 C 293.946 202.723 299.197 196.349 305.902 195.679 C 309.753 195.292 313.436 196.494 316.268 199.058 C 319.065 201.589 320.669 205.202 320.669 208.97 L 320.669 350.064 C 320.669 354.491 324.258 358.081 328.686 358.081 C 333.114 358.081 336.703 354.492 336.703 350.064 L 336.703 337.237 C 336.703 333.469 338.306 329.856 341.104 327.325 C 343.938 324.761 347.619 323.558 351.47 323.946 C 358.174 324.617 363.426 330.991 363.426 338.456 L 363.426 358.613 C 363.426 363.04 367.015 366.63 371.443 366.63 C 375.87 366.63 379.46 363.041 379.46 358.613 L 379.46 345.786 C 379.46 342.018 381.063 338.405 383.861 335.874 C 386.695 333.31 390.377 332.108 394.227 332.495 C 400.931 333.166 406.183 339.54 406.183 347.005 L 406.183 367.163 C 406.183 371.59 409.772 375.18 414.2 375.18 C 418.627 375.18 422.217 371.591 422.217 367.163 L 422.217 354.336 C 422.217 350.568 423.82 346.955 426.618 344.424 C 429.452 341.861 433.131 340.657 436.984 341.046 C 443.688 341.716 448.94 348.09 448.94 355.555 L 448.94 444.125 L 448.935 444.125 Z " fill="rgb(3,94,140)"/></g></g></g></svg>