<?xml version="1.0" encoding="UTF-8" standalone="no"?><!-- Generator: Gravit.io --><svg xmlns="http://www.w3.org/2000/svg" xmlns:xlink="http://www.w3.org/1999/xlink" style="isolation:isolate" viewBox="0 0 1792 1792" width="1792pt" height="1792pt"><defs><clipPath id="_clipPath_TYxpX79oEgDvX03m1Bvcwe2bwYs77PJ6"><rect width="1792" height="1792"/></clipPath></defs><g clip-path="url(#_clipPath_TYxpX79oEgDvX03m1Bvcwe2bwYs77PJ6)"><clipPath id="_clipPath_xuMXDxJe86lFN0v4ov2mARn0BKDEtH8s"><rect x="0" y="0" width="1792" height="1792" transform="matrix(1,0,0,1,0,0)" fill="rgb(255,255,255)"/></clipPath><g clip-path="url(#_clipPath_xuMXDxJe86lFN0v4ov2mARn0BKDEtH8s)"><g><path d=" M 1376 128 Q 1495 128 1579.5 212.5 Q 1664 297 1664 416 L 1664 1376 Q 1664 1495 1579.5 1579.5 Q 1495 1664 1376 1664 L 1188 1664 L 1188 1069 L 1387 1069 L 1417 837 L 1188 837 L 1188 689 Q 1188 633 1211.5 605 Q 1235 577 1303 577 L 1425 576 L 1425 369 Q 1362 360 1247 360 Q 1111 360 1029.5 440 Q 948 520 948 666 L 948 837 L 748 837 L 748 1069 L 948 1069 L 948 1664 L 416 1664 Q 297 1664 212.5 1579.5 Q 128 1495 128 1376 L 128 416 Q 128 297 212.5 212.5 Q 297 128 416 128 L 1376 128 L 1376 128 L 1376 128 Z " fill="rgb(156,197,199)"/></g></g></g></svg>