<?xml version="1.0" encoding="UTF-8" standalone="no"?><!-- Generator: Gravit.io --><svg xmlns="http://www.w3.org/2000/svg" xmlns:xlink="http://www.w3.org/1999/xlink" style="isolation:isolate" viewBox="0 0 246.118 246.118" width="246.118pt" height="246.118pt"><defs><clipPath id="_clipPath_beoWnftfvl7lJhcPjrNrz3at3P6UyMy0"><rect width="246.118" height="246.118"/></clipPath></defs><g clip-path="url(#_clipPath_beoWnftfvl7lJhcPjrNrz3at3P6UyMy0)"><g><g><path d=" M 20.488 214.394 L 24.023 214.394 C 20.712 208.281 18.766 200.958 18.766 193.076 L 18.766 112.793 C 18.766 104.912 20.708 97.583 24.023 91.479 L 20.488 91.479 C 9.175 91.478 0 100.648 0 111.966 L 0 193.905 C 0 205.219 9.171 214.394 20.488 214.394 Z " fill="rgb(156,197,199)"/><path d=" M 75.996 214.394 L 225.639 214.394 C 236.952 214.394 246.118 205.219 246.118 193.906 L 246.118 111.962 C 246.118 100.649 236.952 91.474 225.639 91.474 L 213.183 91.474 L 213.183 50.493 C 213.183 34.87 201.236 22.166 186.543 22.166 L 110.066 22.166 C 95.386 22.166 83.438 34.874 83.438 50.493 L 83.438 91.472 L 75.996 91.472 C 79.308 97.581 81.263 104.906 81.263 112.786 L 81.263 193.064 C 81.258 200.953 79.308 208.28 75.996 214.394 Z  M 205.132 199.978 C 200.236 199.978 196.27 196.001 196.27 191.106 C 196.27 186.201 200.237 182.229 205.132 182.229 C 210.042 182.229 214.014 186.201 214.014 191.106 C 214.022 196.001 210.047 199.978 205.132 199.978 Z  M 216.062 135.109 L 216.062 168.745 L 102.029 168.745 L 102.029 135.109 L 216.062 135.109 L 216.062 135.109 Z  M 95.729 50.498 C 95.729 41.651 102.163 34.464 110.066 34.464 L 186.543 34.464 C 194.458 34.464 200.89 41.651 200.89 50.498 L 200.89 95.594 C 200.89 104.433 194.458 111.628 186.543 111.628 L 110.066 111.628 C 102.162 111.628 95.729 104.438 95.729 95.594 L 95.729 50.498 L 95.729 50.498 Z " fill="rgb(156,197,199)"/><path d=" M 50.008 223.952 C 63.085 223.952 73.679 210.124 73.679 193.075 L 73.679 112.792 C 73.679 95.741 63.085 81.919 50.008 81.919 C 36.943 81.919 26.336 95.745 26.336 112.792 L 26.336 193.075 C 26.336 210.124 36.942 223.952 50.008 223.952 Z " fill="rgb(156,197,199)"/><path d=" M 109.469 55.186 L 186.533 55.186 C 189.176 55.186 191.312 53.044 191.312 50.407 C 191.312 47.767 189.175 45.628 186.533 45.628 L 109.469 45.628 C 106.827 45.628 104.69 47.768 104.69 50.407 C 104.689 53.044 106.827 55.186 109.469 55.186 Z " fill="rgb(156,197,199)"/><path d=" M 109.469 77.312 L 186.533 77.312 C 189.176 77.312 191.312 75.17 191.312 72.533 C 191.312 69.896 189.175 67.754 186.533 67.754 L 109.469 67.754 C 106.827 67.754 104.69 69.896 104.69 72.533 C 104.689 75.17 106.827 77.312 109.469 77.312 Z " fill="rgb(156,197,199)"/><path d=" M 109.469 99.439 L 186.533 99.439 C 189.176 99.439 191.312 97.299 191.312 94.66 C 191.312 92.023 189.175 89.881 186.533 89.881 L 109.469 89.881 C 106.827 89.881 104.69 92.024 104.69 94.66 C 104.689 97.299 106.827 99.439 109.469 99.439 Z " fill="rgb(156,197,199)"/></g></g></g></svg>