<?xml version="1.0" encoding="UTF-8" standalone="no"?><!-- Generator: Gravit.io --><svg xmlns="http://www.w3.org/2000/svg" xmlns:xlink="http://www.w3.org/1999/xlink" style="isolation:isolate" viewBox="0 0 512 512" width="512pt" height="512pt"><defs><clipPath id="_clipPath_AHlbwdxmU2brq2NQFgDoCVYhpXMowz1t"><rect width="512" height="512"/></clipPath></defs><g clip-path="url(#_clipPath_AHlbwdxmU2brq2NQFgDoCVYhpXMowz1t)"><clipPath id="_clipPath_Z0AG9fVUYHpY83ZPYtips8eWlTAAIual"><rect x="0" y="0" width="512" height="512" transform="matrix(1,0,0,1,0,0)" fill="rgb(255,255,255)"/></clipPath><g clip-path="url(#_clipPath_Z0AG9fVUYHpY83ZPYtips8eWlTAAIual)"><g><clipPath id="_clipPath_qXlzUU0cNBQNAkhth855X8fRaEHSxMuO"><rect x="0" y="0" width="512" height="512" transform="matrix(1,0,0,1,0,0)" fill="rgb(255,255,255)"/></clipPath><g clip-path="url(#_clipPath_qXlzUU0cNBQNAkhth855X8fRaEHSxMuO)"><g><g><path d=" M 425.951 89.021 C 386.864 32.451 324.917 0 256.006 0 C 187.095 0 125.148 32.451 86.061 89.021 C 47.166 145.305 38.185 216.562 61.989 279.517 C 68.356 296.709 78.477 313.412 91.999 329.064 L 242.377 505.698 C 245.778 509.696 250.761 512 256.006 512 C 261.251 512 266.234 509.697 269.635 505.698 L 419.971 329.112 C 433.553 313.37 443.661 296.685 449.975 279.631 C 473.827 216.562 464.846 145.305 425.951 89.021 L 425.951 89.021 L 425.951 89.021 Z  M 256.006 270.918 C 220.47 270.918 191.558 242.006 191.558 206.47 C 191.558 170.934 220.47 142.022 256.006 142.022 C 291.542 142.022 320.454 170.934 320.454 206.47 C 320.454 242.006 291.542 270.918 256.006 270.918 L 256.006 270.918 L 256.006 270.918 Z " fill-rule="evenodd" fill="rgb(156,197,199)"/></g></g></g></g></g></g></svg>