<?xml version="1.0" encoding="UTF-8" standalone="no"?><!-- Generator: Gravit.io --><svg xmlns="http://www.w3.org/2000/svg" xmlns:xlink="http://www.w3.org/1999/xlink" style="isolation:isolate" viewBox="0 0 436 436" width="436pt" height="436pt"><defs><clipPath id="_clipPath_feVlLcvCovvOhxM8o0Rta4egd6uxGHaA"><rect width="436" height="436"/></clipPath></defs><g clip-path="url(#_clipPath_feVlLcvCovvOhxM8o0Rta4egd6uxGHaA)"><path d=" M 252.054 436 C 225.568 436 184.191 414.891 183.69 414.605 C 182.128 413.722 180.399 412.779 178.556 411.781 C 161.418 402.484 132.734 386.932 132.734 354.69 C 132.734 326.962 124.486 319.919 109.519 307.14 C 106.771 304.799 104.196 302.743 101.842 300.861 C 90.759 292.011 80.297 283.653 86.455 267.861 C 87.635 264.857 89.579 260.524 91.902 255.349 C 99.401 238.688 111.954 210.802 111.954 194.992 C 111.954 185.645 109.907 182.002 109.018 180.852 L 12.267 180.852 C 7.063 180.852 2.85 177.259 2.85 172.816 L 2.85 150.639 C 2.85 148.689 3.679 146.807 5.183 145.344 C 6.761 143.799 44.426 107.491 89.03 102.73 C 127.271 98.604 144.631 105.281 154.792 109.237 C 159.851 108.727 170.739 131.903 169.117 131.213 C 168.724 131.048 129.464 114.626 91.363 118.687 C 59.538 122.082 30.019 146.389 21.674 153.804 L 21.674 164.779 L 110.974 164.779 C 114.282 164.779 130.784 166.238 130.784 194.997 C 130.784 213.792 117.967 242.271 109.476 261.122 C 107.278 266.012 105.43 270.101 104.32 272.953 C 102.197 278.39 103.167 279.908 114.707 289.127 C 117.196 291.109 119.923 293.294 122.832 295.774 C 138.882 309.482 151.564 320.31 151.564 354.695 C 151.564 378.104 172.996 389.724 188.652 398.206 C 190.613 399.274 192.456 400.281 194.132 401.233 C 212.509 411.698 248.536 422.619 255.405 419.698 C 259.505 416.133 260.539 409.725 259.844 407.043 C 253.562 406.588 239.824 402.047 226.527 356.641 C 225.003 351.411 221.506 348.246 217.805 344.897 C 211.383 339.078 202.579 331.111 211.657 315.604 C 223.494 295.415 259.914 305.084 277.403 309.735 C 279.186 310.204 280.694 310.618 281.853 310.903 C 288.512 307.872 304.184 295.107 304.184 288.151 C 304.184 265.708 362.365 258.274 370.28 257.943 C 371.729 254.236 371.729 242.671 371.729 230.49 C 371.729 206.308 392.606 202.964 405.084 200.968 C 409.297 200.301 414.544 199.463 416.047 198.18 C 417.06 197.311 418.079 193.01 415.816 186.979 C 412.777 178.878 404.389 169.49 389.982 167.438 C 380.376 166.09 375.823 169.784 368.011 177.029 C 359.591 184.835 348.066 195.526 326.204 189.311 C 301.334 182.236 306.097 163.597 308.942 152.456 C 311.528 142.341 312.212 137.621 307.945 134.889 C 301.054 130.468 299.896 130.937 294.411 133.09 C 291.787 134.125 288.517 135.404 284.417 136.269 C 279.401 137.308 288.485 122.892 290.667 122.027 C 299.874 118.402 304.561 112.606 319.243 122.027 C 333.633 131.236 329.996 145.487 327.34 155.888 C 323.86 169.499 324.496 171.882 332.162 174.062 C 342.048 176.859 345.831 173.86 354.16 166.141 C 362.09 158.786 372.92 148.675 393.08 151.577 C 415.843 154.82 429.015 169.458 433.746 182.071 C 437.91 193.157 436.224 203.686 429.355 209.551 C 423.741 214.349 416.015 215.577 408.542 216.773 C 395.176 218.917 390.553 220.177 390.553 230.486 C 390.553 258.555 390.553 274.011 370.743 274.011 C 358.788 274.011 325.557 282.742 322.949 288.496 C 323.009 305.516 293.582 327.238 282.418 327.238 C 279.919 327.238 277.376 326.561 271.799 325.08 C 246.154 318.272 231.586 317.49 228.499 322.794 C 225.304 328.25 225.886 328.783 231.505 333.862 C 235.966 337.91 242.071 343.443 244.791 352.745 C 251.456 375.505 259.106 388.523 262.754 391.04 C 269.062 391.394 274.315 394.747 276.95 400.171 C 281.524 409.61 277.726 423.299 268.297 431.349 C 264.418 434.666 258.702 436 252.054 436 L 252.054 436 Z  M 261.649 391.007 L 261.655 391.007 C 261.655 391.007 261.655 391.007 261.649 391.007 Z " fill="rgb(255,255,255)"/><path d=" M 227.695 226.486 C 225.055 226.486 222.549 225.357 220.844 223.418 C 212.565 213.937 139.916 129.607 139.916 85.557 C 139.916 38.704 179.291 0.581 227.695 0.581 C 276.098 0.581 315.479 38.704 315.479 85.557 C 315.479 129.607 242.83 213.937 234.546 223.418 C 232.841 225.362 230.335 226.486 227.695 226.486 Z  M 227.695 17.957 C 189.193 17.957 157.865 48.284 157.865 85.557 C 157.865 114.483 203.29 174.899 227.695 204.148 C 252.105 174.899 297.524 114.488 297.524 85.557 C 297.524 48.284 266.202 17.957 227.695 17.957 Z  M 227.695 123.924 C 202.956 123.924 182.82 104.43 182.82 80.476 C 182.82 56.527 202.956 37.033 227.695 37.033 C 252.438 37.033 272.57 56.527 272.57 80.476 C 272.57 104.43 252.438 123.924 227.695 123.924 Z  M 227.695 54.414 C 212.848 54.414 200.769 66.103 200.769 80.476 C 200.769 94.849 212.848 106.543 227.695 106.543 C 242.542 106.543 254.621 94.849 254.621 80.476 C 254.621 66.103 242.542 54.414 227.695 54.414 Z " fill="rgb(255,255,255)"/></g></svg>