<?xml version="1.0" encoding="UTF-8" standalone="no"?><!-- Generator: Gravit.io --><svg xmlns="http://www.w3.org/2000/svg" xmlns:xlink="http://www.w3.org/1999/xlink" style="isolation:isolate" viewBox="0 0 56.693 56.693" width="56.693pt" height="56.693pt"><defs><clipPath id="_clipPath_de0SDy3n1KKt8usCjTL0tu7nOprcSaNY"><rect width="56.693" height="56.693"/></clipPath></defs><g clip-path="url(#_clipPath_de0SDy3n1KKt8usCjTL0tu7nOprcSaNY)"><clipPath id="_clipPath_sFmJqDZW1tWXGQhaK2bHOt1GqEa23UoQ"><rect x="0" y="0" width="56.693" height="56.693" transform="matrix(1,0,0,1,0,0)" fill="rgb(255,255,255)"/></clipPath><g clip-path="url(#_clipPath_sFmJqDZW1tWXGQhaK2bHOt1GqEa23UoQ)"><g><path d=" M 28.348 5.158 C 14.749 5.158 3.723 16.181 3.723 29.783 C 3.723 39.865 9.786 48.527 18.462 52.336 C 18.393 50.615 18.45 48.553 18.891 46.682 C 19.364 44.682 22.059 33.264 22.059 33.264 C 22.059 33.264 21.272 31.692 21.272 29.368 C 21.272 25.72 23.387 22.995 26.021 22.995 C 28.261 22.995 29.343 24.677 29.343 26.69 C 29.343 28.942 27.906 32.309 27.168 35.428 C 26.552 38.041 28.478 40.172 31.055 40.172 C 35.72 40.172 38.863 34.18 38.863 27.08 C 38.863 21.683 35.228 17.643 28.617 17.643 C 21.147 17.643 16.494 23.213 16.494 29.435 C 16.494 31.581 17.127 33.093 18.118 34.265 C 18.573 34.802 18.637 35.019 18.472 35.636 C 18.354 36.089 18.083 37.181 17.971 37.613 C 17.807 38.238 17.302 38.461 16.738 38.23 C 13.298 36.826 11.695 33.058 11.695 28.822 C 11.695 21.828 17.594 13.44 29.294 13.44 C 38.694 13.44 44.882 20.244 44.882 27.547 C 44.882 37.205 39.513 44.422 31.597 44.422 C 28.938 44.422 26.437 42.984 25.581 41.354 C 25.581 41.354 24.151 47.028 23.849 48.122 C 23.327 50.022 22.304 51.919 21.37 53.397 C 23.585 54.051 25.924 54.407 28.349 54.407 C 41.947 54.407 52.972 43.384 52.972 29.784 C 52.971 16.181 41.945 5.158 28.348 5.158 Z " fill="rgb(156,197,199)"/></g></g></g></svg>