<?xml version="1.0" encoding="UTF-8" standalone="no"?><!-- Generator: Gravit.io --><svg xmlns="http://www.w3.org/2000/svg" xmlns:xlink="http://www.w3.org/1999/xlink" style="isolation:isolate" viewBox="0 0 485.213 485.212" width="485.213pt" height="485.212pt"><defs><clipPath id="_clipPath_3CB9189PoHHyDhB4CONFO7eXZlfXltE6"><rect width="485.213" height="485.212"/></clipPath></defs><g clip-path="url(#_clipPath_3CB9189PoHHyDhB4CONFO7eXZlfXltE6)"><g><path d=" M 60.652 75.816 L 60.652 15.163 C 60.652 6.781 67.433 0 75.817 0 C 84.197 0 90.978 6.781 90.978 15.163 L 90.978 75.816 C 90.978 84.196 84.197 90.977 75.817 90.977 C 67.433 90.978 60.652 84.196 60.652 75.816 Z  M 318.424 90.978 C 326.802 90.978 333.587 84.197 333.587 75.817 L 333.587 15.163 C 333.587 6.781 326.802 0 318.424 0 C 310.042 0 303.256 6.781 303.256 15.163 L 303.256 75.816 C 303.256 84.196 310.042 90.978 318.424 90.978 Z  M 485.212 363.906 C 485.212 430.902 430.9 485.213 363.909 485.213 C 296.923 485.213 242.607 430.902 242.607 363.906 C 242.607 296.92 296.922 242.606 363.909 242.606 C 430.9 242.606 485.212 296.919 485.212 363.906 Z  M 454.89 363.906 C 454.89 313.745 414.08 272.93 363.91 272.93 C 313.744 272.93 272.934 313.744 272.934 363.906 C 272.934 414.077 313.744 454.886 363.91 454.886 C 414.08 454.886 454.89 414.077 454.89 363.906 Z  M 121.305 181.955 L 60.652 181.955 L 60.652 242.606 L 121.305 242.606 L 121.305 181.955 L 121.305 181.955 Z  M 60.652 333.584 L 121.305 333.584 L 121.305 272.93 L 60.652 272.93 L 60.652 333.584 L 60.652 333.584 Z  M 151.629 242.606 L 212.283 242.606 L 212.283 181.955 L 151.629 181.955 L 151.629 242.606 L 151.629 242.606 Z  M 151.629 333.584 L 212.283 333.584 L 212.283 272.93 L 151.629 272.93 L 151.629 333.584 L 151.629 333.584 Z  M 30.328 360.891 L 30.328 151.628 L 363.91 151.628 L 363.91 212.281 L 394.237 212.281 L 394.237 94 C 394.237 75.579 379.545 60.651 361.394 60.651 L 348.747 60.651 L 348.747 75.817 C 348.747 92.518 335.151 106.142 318.425 106.142 C 301.694 106.142 288.099 92.518 288.099 75.817 L 288.099 60.651 L 106.14 60.651 L 106.14 75.817 C 106.14 92.518 92.547 106.142 75.818 106.142 C 59.085 106.142 45.491 92.518 45.491 75.817 L 45.491 60.651 L 32.859 60.651 C 14.707 60.651 0.001 75.579 0.001 94 L 0.001 360.892 C 0.001 379.252 14.707 394.238 32.859 394.238 L 212.283 394.238 L 212.283 363.907 L 32.859 363.907 C 31.485 363.906 30.328 362.487 30.328 360.891 Z  M 303.256 242.606 L 303.256 181.955 L 242.608 181.955 L 242.608 242.606 L 303.256 242.606 L 303.256 242.606 Z  M 409.399 363.906 L 363.909 363.906 L 363.909 318.416 C 363.909 310.039 357.128 303.258 348.746 303.258 C 340.364 303.258 333.587 310.039 333.587 318.416 L 333.587 379.074 C 333.587 387.452 340.364 394.237 348.746 394.237 L 409.399 394.237 C 417.781 394.237 424.562 387.452 424.562 379.074 C 424.562 370.692 417.781 363.906 409.399 363.906 Z " fill="rgb(156,197,199)"/></g></g></svg>