<?xml version="1.0" encoding="UTF-8" standalone="no"?><!-- Generator: Gravit.io --><svg xmlns="http://www.w3.org/2000/svg" xmlns:xlink="http://www.w3.org/1999/xlink" style="isolation:isolate" viewBox="0 0 512 512" width="512pt" height="512pt"><defs><clipPath id="_clipPath_vVAy3JaRKGxLfNiAz69UyzA9CsE0vJ47"><rect width="512" height="512"/></clipPath></defs><g clip-path="url(#_clipPath_vVAy3JaRKGxLfNiAz69UyzA9CsE0vJ47)"><clipPath id="_clipPath_gIU285KvRUQTUPJY2Hgo7vYMRPNR6xJD"><rect x="0" y="0" width="512" height="512" transform="matrix(1,0,0,1,0,0)" fill="rgb(255,255,255)"/></clipPath><g clip-path="url(#_clipPath_gIU285KvRUQTUPJY2Hgo7vYMRPNR6xJD)"><g><g><g><g><circle vector-effect="non-scaling-stroke" cx="386" cy="210" r="20" fill="rgb(156,197,199)"/><path d=" M 432 40 L 406 40 L 406 20 C 406 8.954 397.046 0 386 0 C 374.954 0 366 8.954 366 20 L 366 40 L 275 40 L 275 20 C 275 8.954 266.046 0 255 0 C 243.954 0 235 8.954 235 20 L 235 40 L 145 40 L 145 20 C 145 8.954 136.046 0 125 0 C 113.954 0 105 8.954 105 20 L 105 40 L 80 40 C 35.888 40 0 75.888 0 120 L 0 432 C 0 476.112 35.888 512 80 512 L 233 512 C 244.046 512 253 503.046 253 492 C 253 480.954 244.046 472 233 472 L 80 472 C 57.944 472 40 454.056 40 432 L 40 120 C 40 97.944 57.944 80 80 80 L 105 80 L 105 100 C 105 111.046 113.954 120 125 120 C 136.046 120 145 111.046 145 100 L 145 80 L 235 80 L 235 100 C 235 111.046 243.954 120 255 120 C 266.046 120 275 111.046 275 100 L 275 80 L 366 80 L 366 100 C 366 111.046 374.954 120 386 120 C 397.046 120 406 111.046 406 100 L 406 80 L 432 80 C 454.056 80 472 97.944 472 120 L 472 234 C 472 245.046 480.954 254 492 254 C 503.046 254 512 245.046 512 234 L 512 120 C 512 75.888 476.112 40 432 40 Z " fill="rgb(156,197,199)"/><path d=" M 391 270 C 324.28 270 270 324.28 270 391 C 270 457.72 324.28 512 391 512 C 457.72 512 512 457.72 512 391 C 512 324.28 457.72 270 391 270 Z  M 391 472 C 346.337 472 310 435.664 310 391 C 310 346.336 346.337 310 391 310 C 435.663 310 472 346.336 472 391 C 472 435.664 435.663 472 391 472 Z " fill="rgb(156,197,199)"/><path d=" M 420 371 L 411 371 L 411 350 C 411 338.954 402.046 330 391 330 C 379.954 330 371 338.954 371 350 L 371 391 C 371 402.046 379.954 411 391 411 L 420 411 C 431.046 411 440 402.046 440 391 C 440 379.954 431.046 371 420 371 Z " fill="rgb(156,197,199)"/><circle vector-effect="non-scaling-stroke" cx="299" cy="210" r="20" fill="rgb(156,197,199)"/><circle vector-effect="non-scaling-stroke" cx="212" cy="297" r="20" fill="rgb(156,197,199)"/><circle vector-effect="non-scaling-stroke" cx="125" cy="210" r="20" fill="rgb(156,197,199)"/><circle vector-effect="non-scaling-stroke" cx="125" cy="297" r="20" fill="rgb(156,197,199)"/><circle vector-effect="non-scaling-stroke" cx="125" cy="384" r="20" fill="rgb(156,197,199)"/><circle vector-effect="non-scaling-stroke" cx="212" cy="384" r="20" fill="rgb(156,197,199)"/><circle vector-effect="non-scaling-stroke" cx="212" cy="210" r="20" fill="rgb(156,197,199)"/></g></g></g></g></g></g></svg>