<?xml version="1.0" encoding="UTF-8" standalone="no"?><!-- Generator: Gravit.io --><svg xmlns="http://www.w3.org/2000/svg" xmlns:xlink="http://www.w3.org/1999/xlink" style="isolation:isolate" viewBox="0 0 512 512" width="512pt" height="512pt"><defs><clipPath id="_clipPath_91PfRynNlPmUWM80fkMgInGBvcj0uv1z"><rect width="512" height="512"/></clipPath></defs><g clip-path="url(#_clipPath_91PfRynNlPmUWM80fkMgInGBvcj0uv1z)"><g><g><path d=" M 401.777 94.141 L 110.223 94.141 C 106.077 94.141 102.717 97.501 102.717 101.647 C 102.717 105.793 106.077 109.153 110.223 109.153 L 401.777 109.153 C 405.923 109.153 409.283 105.793 409.283 101.647 C 409.283 97.501 405.923 94.141 401.777 94.141 Z " fill="rgb(255,255,255)"/></g></g><g><g><path d=" M 401.778 146.988 L 373.682 146.988 L 110.224 146.988 C 106.078 146.988 102.718 150.348 102.718 154.494 C 102.718 158.64 106.078 162 110.224 162 L 401.778 162 C 405.924 162 409.283 158.64 409.283 154.494 C 409.283 150.348 405.924 146.988 401.778 146.988 Z " fill="rgb(255,255,255)"/></g></g><g><g><path d=" M 401.777 253.5 L 110.223 253.5 C 106.077 253.5 102.717 256.86 102.717 261.006 C 102.717 265.151 106.077 268.512 110.223 268.512 L 401.777 268.512 C 405.923 268.512 409.283 265.152 409.283 261.006 C 409.283 256.86 405.923 253.5 401.777 253.5 Z " fill="rgb(255,255,255)"/></g></g><g><g><path d=" M 306.193 309.909 L 205.807 309.909 C 201.661 309.909 198.301 313.269 198.301 317.415 C 198.301 321.56 201.661 324.921 205.807 324.921 L 306.193 324.921 C 310.339 324.921 313.699 321.561 313.699 317.415 C 313.699 313.269 310.339 309.909 306.193 309.909 Z " fill="rgb(255,255,255)"/></g></g><g><g><path d=" M 398.98 199.987 L 348.026 199.987 L 181.506 199.987 C 177.36 199.987 174 203.347 174 207.493 C 174 211.638 177.36 214.999 181.506 214.999 L 398.98 214.999 C 403.126 214.999 406.486 211.639 406.486 207.493 C 406.486 203.347 403.126 199.987 398.98 199.987 Z " fill="rgb(255,255,255)"/></g></g><g><g><path d=" M 149.381 199.987 L 110.223 199.987 C 106.077 199.987 102.717 203.347 102.717 207.493 C 102.717 211.639 106.077 214.999 110.223 214.999 L 149.381 214.999 C 153.527 214.999 156.887 211.639 156.887 207.493 C 156.887 203.348 153.527 199.987 149.381 199.987 Z " fill="rgb(255,255,255)"/></g></g><g><g><path d=" M 473.251 81.455 C 471.505 79.74 469.194 78.796 466.729 78.796 C 466.727 78.796 466.726 78.796 466.724 78.796 C 451.511 78.796 439.06 66.904 438.375 51.718 C 438.15 46.78 434.092 42.913 429.137 42.913 L 81.077 42.913 C 76.121 42.913 72.062 46.781 71.838 51.723 C 71.185 66.234 59.306 78.114 44.794 78.767 C 39.854 78.989 35.985 83.048 35.985 88.006 L 35.985 367.027 C 35.985 371.985 39.854 376.043 44.794 376.265 C 59.306 376.919 71.185 388.798 71.838 403.314 C 72.063 408.252 76.122 412.119 81.077 412.119 L 302.654 412.119 C 306.8 412.119 310.16 408.759 310.16 404.613 C 310.16 400.468 306.8 397.107 302.654 397.107 L 86.239 397.107 C 83.136 379.028 69.075 364.967 50.996 361.863 L 50.996 93.167 C 69.075 90.064 83.136 76 86.239 57.924 L 423.978 57.924 C 427.208 76.574 442.223 90.97 461.004 93.434 L 461.004 305.903 C 461.004 310.048 464.364 313.409 468.51 313.409 C 472.656 313.409 476.016 310.049 476.016 305.903 L 476.016 88.048 C 476.016 85.549 475.034 83.207 473.251 81.455 Z " fill="rgb(255,255,255)"/></g></g><g><g><path d=" M 491.165 1.445 L 20.835 1.445 C 9.347 1.445 0 10.792 0 22.28 L 0 428.75 C 0 440.239 9.347 449.585 20.835 449.585 L 335.883 449.585 L 324.729 472.958 C 323.296 475.959 323.645 479.478 325.637 482.14 C 327.63 484.803 330.909 486.126 334.19 485.601 L 354.956 482.263 L 366.539 501.276 C 368.163 503.944 371.049 505.554 374.15 505.554 C 374.301 505.554 374.453 505.55 374.605 505.542 C 377.877 505.376 380.786 503.436 382.199 500.478 L 402.325 458.305 L 422.449 500.475 C 423.859 503.433 426.768 505.375 430.041 505.543 C 430.194 505.551 430.348 505.555 430.5 505.555 C 433.601 505.555 436.487 503.945 438.111 501.278 L 449.694 482.265 L 470.46 485.604 C 473.751 486.13 477.024 484.803 479.015 482.139 C 481.007 479.475 481.353 475.957 479.92 472.961 L 468.766 449.588 L 491.165 449.588 C 502.653 449.588 512 440.242 512 428.753 L 512 22.28 C 512 10.792 502.653 1.445 491.165 1.445 Z  M 373.501 483.85 L 365.644 470.955 C 363.752 467.849 360.21 466.215 356.616 466.792 L 343.282 468.936 L 357.328 439.504 C 362.864 445.153 370.751 448.205 378.938 447.434 C 381.737 447.166 384.543 447.92 386.836 449.549 C 387.592 450.087 388.377 450.564 389.172 451.014 L 373.501 483.85 Z  M 404.115 439.342 C 404.092 439.345 404.069 439.347 404.045 439.351 C 402.907 439.519 401.75 439.519 400.612 439.352 C 400.583 439.348 400.554 439.345 400.526 439.341 C 398.763 439.068 397.049 438.393 395.531 437.314 C 390.991 434.086 385.57 432.37 380.04 432.37 C 379.202 432.37 378.362 432.41 377.522 432.489 C 372.553 432.958 367.832 430.229 365.758 425.697 C 364.837 423.685 363.662 421.823 362.298 420.12 C 362.238 420.035 362.172 419.955 362.109 419.873 C 362.033 419.781 361.962 419.686 361.886 419.595 C 361.799 419.493 361.708 419.396 361.615 419.299 C 359.133 416.443 356.066 414.111 352.573 412.513 C 348.04 410.439 345.311 405.711 345.781 400.748 C 346.385 394.362 344.672 387.966 340.956 382.739 C 338.067 378.676 338.067 373.217 340.955 369.154 C 344.672 363.927 346.385 357.531 345.781 351.145 C 345.311 346.182 348.041 341.454 352.573 339.38 C 358.406 336.711 363.088 332.029 365.757 326.196 C 367.832 321.663 372.57 318.933 377.522 319.404 C 383.915 320.007 390.305 318.294 395.532 314.578 C 399.596 311.69 405.055 311.69 409.117 314.578 C 414.345 318.294 420.736 320.003 427.127 319.404 C 432.094 318.932 436.819 321.664 438.893 326.196 C 441.562 332.029 446.244 336.711 452.076 339.379 C 456.609 341.454 459.339 346.182 458.869 351.144 C 458.265 357.531 459.978 363.927 463.694 369.153 C 466.583 373.216 466.583 378.675 463.694 382.738 C 459.978 387.966 458.265 394.362 458.869 400.747 C 459.339 405.71 456.609 410.438 452.075 412.513 C 448.59 414.108 445.53 416.434 443.051 419.281 C 442.949 419.387 442.849 419.494 442.755 419.605 C 442.69 419.683 442.629 419.764 442.564 419.843 C 442.489 419.939 442.413 420.033 442.343 420.132 C 440.983 421.832 439.811 423.69 438.893 425.697 C 436.818 430.229 432.09 432.96 427.127 432.489 C 420.747 431.888 414.347 433.598 409.117 437.314 C 407.597 438.394 405.881 439.07 404.115 439.342 Z  M 448.033 466.791 C 444.438 466.216 440.898 467.849 439.005 470.956 L 431.149 483.851 L 415.478 451.014 C 416.273 450.564 417.057 450.087 417.814 449.549 C 420.108 447.919 422.916 447.163 425.712 447.433 C 433.902 448.205 441.787 445.153 447.323 439.504 L 461.368 468.935 L 448.033 466.791 Z  M 496.989 428.751 C 496.989 431.962 494.377 434.575 491.165 434.575 L 461.602 434.575 L 457.732 426.465 C 457.927 426.362 458.121 426.254 458.323 426.162 C 468.659 421.431 474.884 410.649 473.813 399.333 C 473.548 396.533 474.299 393.728 475.929 391.435 C 482.515 382.17 482.515 369.72 475.928 360.455 C 474.299 358.163 473.548 355.359 473.813 352.558 C 474.884 341.242 468.659 330.46 458.322 325.729 C 455.765 324.558 453.712 322.505 452.541 319.948 C 447.811 309.611 437.024 303.388 425.711 304.458 C 422.909 304.725 420.106 303.972 417.814 302.342 C 408.549 295.756 396.098 295.755 386.834 302.342 C 384.541 303.972 381.73 304.725 378.937 304.457 C 367.607 303.391 356.837 309.611 352.108 319.947 C 350.937 322.505 348.884 324.557 346.326 325.728 C 335.99 330.459 329.765 341.24 330.836 352.557 C 331.101 355.358 330.35 358.162 328.72 360.455 C 322.134 369.72 322.134 382.17 328.72 391.434 C 330.35 393.726 331.101 396.531 330.836 399.332 C 329.765 410.649 335.99 421.431 346.326 426.161 C 346.528 426.253 346.721 426.361 346.916 426.464 L 343.046 434.575 L 20.835 434.575 C 17.624 434.575 15.011 431.963 15.011 428.751 L 15.011 22.28 C 15.011 19.069 17.623 16.456 20.835 16.456 L 491.165 16.456 C 494.376 16.456 496.989 19.069 496.989 22.28 L 496.989 428.751 Z " fill="rgb(255,255,255)"/></g></g><g><g><path d=" M 401.777 329.312 C 376.063 329.312 355.143 350.232 355.143 375.945 C 355.143 401.659 376.063 422.579 401.777 422.579 C 427.491 422.579 448.41 401.658 448.41 375.945 C 448.41 350.231 427.491 329.312 401.777 329.312 Z  M 401.777 407.567 C 384.34 407.567 370.154 393.381 370.154 375.944 C 370.154 358.508 384.34 344.322 401.777 344.322 C 419.213 344.322 433.399 358.508 433.399 375.944 C 433.399 393.381 419.213 407.567 401.777 407.567 Z " fill="rgb(255,255,255)"/></g></g></g></svg>