<?xml version="1.0" encoding="UTF-8" standalone="no"?><!-- Generator: Gravit.io --><svg xmlns="http://www.w3.org/2000/svg" xmlns:xlink="http://www.w3.org/1999/xlink" style="isolation:isolate" viewBox="0 0 24 24" width="24pt" height="24pt"><defs><clipPath id="_clipPath_RN2eBVddlUhcKLMy4HbiEPIUog907lY1"><rect width="24" height="24"/></clipPath></defs><g clip-path="url(#_clipPath_RN2eBVddlUhcKLMy4HbiEPIUog907lY1)"><clipPath id="_clipPath_8OsnL79Bxd146niEdlkQRuCHLFDQ0GVu"><rect x="0" y="0" width="24" height="24" transform="matrix(1,0,0,1,0,0)" fill="rgb(255,255,255)"/></clipPath><g clip-path="url(#_clipPath_8OsnL79Bxd146niEdlkQRuCHLFDQ0GVu)"><g><path d=" M 11.984 13 C 10.031 13 -0.031 4.891 -0.031 4.891 L -0.031 4 C -0.031 2.896 0.865 2 1.971 2 L 21.997 2 C 23.104 2 24 2.896 24 4 L 23.984 5 C 23.984 5 14.031 13 11.984 13 Z  M 11.984 15.75 C 14.125 15.75 23.984 8 23.984 8 L 24 20 C 24 21.104 23.104 22 21.997 22 L 1.971 22 C 0.866 22 -0.031 21.104 -0.031 20 L -0.015 8 C -0.016 8 10.031 15.75 11.984 15.75 Z " fill-rule="evenodd" fill="rgb(156,197,199)"/></g></g></g></svg>