<?xml version="1.0" encoding="UTF-8" standalone="no"?><!-- Generator: Gravit.io --><svg xmlns="http://www.w3.org/2000/svg" xmlns:xlink="http://www.w3.org/1999/xlink" style="isolation:isolate" viewBox="0 0 512 512" width="512pt" height="512pt"><defs><clipPath id="_clipPath_gvgMN0ECYO98JgJ8NRcmb4A33Xfoa2Gs"><rect width="512" height="512"/></clipPath></defs><g clip-path="url(#_clipPath_gvgMN0ECYO98JgJ8NRcmb4A33Xfoa2Gs)"><path d=" M 84.68 466.73 L 71.2 473.81 C 71.2 473.81 71.2 473.81 71.2 473.81 C 69.77 474.56 68.18 474.96 66.57 474.96 C 64.47 474.96 62.42 474.29 60.72 473.06 C 58.14 471.18 56.61 468.18 56.61 464.99 C 56.61 464.78 56.62 464.57 56.64 464.36 L 56.7 463.63 L 59.33 448.31 L 48.43 437.68 C 48.43 437.68 48.42 437.68 48.42 437.68 C 46.5 435.81 45.42 433.24 45.42 430.55 C 45.42 429.51 45.58 428.47 45.91 427.47 C 47.08 423.87 50.2 421.24 53.95 420.7 L 69.01 418.51 L 75.75 404.86 C 75.75 404.86 75.75 404.86 75.75 404.86 C 77.43 401.47 80.9 399.31 84.68 399.31 C 88.47 399.31 91.94 401.47 93.61 404.86 C 93.61 404.86 93.61 404.86 93.61 404.86 L 100.35 418.51 L 115.41 420.7 C 119.16 421.24 122.28 423.88 123.45 427.47 C 123.77 428.47 123.94 429.51 123.94 430.55 C 123.94 433.24 122.85 435.81 120.93 437.68 L 110.03 448.31 L 112.66 463.63 L 112.72 464.37 C 112.74 464.57 112.75 464.78 112.75 464.99 C 112.75 468.18 111.22 471.19 108.63 473.06 C 106.93 474.29 104.88 474.96 102.78 474.96 C 101.18 474.96 99.6 474.57 98.17 473.82 C 98.17 473.82 98.16 473.82 98.15 473.81 L 84.68 466.73 Z  M 96.09 455.78 L 89.31 452.22 C 87.88 451.47 86.29 451.07 84.68 451.07 C 83.06 451.07 81.47 451.47 80.04 452.22 L 73.26 455.78 L 74.61 447.92 L 74.67 447.19 C 74.69 446.97 74.7 446.76 74.7 446.55 C 74.7 443.86 73.61 441.29 71.69 439.42 L 66.21 434.07 L 73.79 432.97 C 77.03 432.5 79.84 430.46 81.29 427.52 L 84.68 420.66 L 88.07 427.52 C 88.07 427.53 88.07 427.53 88.07 427.53 C 89.52 430.46 92.33 432.5 95.57 432.97 L 103.15 434.07 L 97.66 439.42 C 95.74 441.29 94.66 443.87 94.66 446.55 C 94.66 446.76 94.67 446.97 94.68 447.18 L 94.74 447.92 L 96.09 455.78 Z " fill-rule="evenodd" fill="rgb(3,94,140)"/><path d=" M 169.26 466.73 L 155.79 473.81 C 155.78 473.81 155.78 473.81 155.78 473.81 C 154.35 474.56 152.76 474.96 151.15 474.96 C 149.05 474.96 147 474.29 145.3 473.06 C 142.72 471.18 141.19 468.18 141.19 464.99 C 141.19 464.78 141.2 464.57 141.22 464.36 L 141.28 463.63 L 143.91 448.31 L 133.01 437.68 C 133.01 437.68 133.01 437.68 133.01 437.68 C 131.09 435.81 130 433.24 130 430.55 C 130 429.51 130.17 428.47 130.49 427.47 C 131.66 423.87 134.78 421.24 138.53 420.7 L 153.59 418.51 L 160.33 404.86 C 160.33 404.86 160.34 404.86 160.34 404.86 C 162.01 401.47 165.48 399.31 169.26 399.31 C 173.05 399.31 176.52 401.47 178.19 404.86 C 178.19 404.86 178.19 404.86 178.19 404.86 L 184.93 418.51 L 199.99 420.7 C 203.74 421.24 206.86 423.88 208.03 427.47 C 208.36 428.47 208.52 429.51 208.52 430.55 C 208.52 433.24 207.44 435.81 205.51 437.68 L 194.61 448.31 L 197.24 463.63 L 197.3 464.37 C 197.32 464.57 197.33 464.78 197.33 464.99 C 197.33 468.18 195.8 471.19 193.22 473.06 C 191.51 474.29 189.47 474.96 187.37 474.96 C 185.76 474.96 184.18 474.57 182.75 473.82 C 182.75 473.82 182.74 473.82 182.73 473.81 L 169.26 466.73 Z  M 180.68 455.78 L 173.9 452.22 C 172.47 451.47 170.87 451.07 169.26 451.07 C 167.65 451.07 166.05 451.47 164.63 452.22 L 157.85 455.78 L 159.19 447.92 L 159.26 447.19 C 159.27 446.97 159.28 446.76 159.28 446.55 C 159.28 443.86 158.2 441.29 156.27 439.42 L 150.79 434.07 L 158.37 432.97 C 161.61 432.5 164.42 430.46 165.87 427.52 L 169.26 420.66 L 172.65 427.52 C 172.65 427.53 172.65 427.53 172.65 427.53 C 174.1 430.46 176.91 432.5 180.15 432.97 L 187.73 434.07 L 182.25 439.42 C 180.32 441.29 179.24 443.87 179.24 446.55 C 179.24 446.76 179.25 446.97 179.26 447.18 L 179.33 447.92 L 180.68 455.78 Z " fill-rule="evenodd" fill="rgb(3,94,140)"/><path d=" M 253.84 466.73 L 240.37 473.81 C 240.37 473.81 240.36 473.81 240.36 473.81 C 238.94 474.56 237.35 474.96 235.73 474.96 C 233.63 474.96 231.58 474.29 229.88 473.06 C 227.3 471.18 225.77 468.18 225.77 464.99 C 225.77 464.78 225.78 464.57 225.8 464.36 L 225.86 463.63 L 228.49 448.31 L 217.59 437.68 C 217.59 437.68 217.59 437.68 217.59 437.68 C 215.67 435.81 214.58 433.24 214.58 430.55 C 214.58 429.51 214.75 428.47 215.07 427.47 C 216.24 423.87 219.37 421.24 223.11 420.7 L 238.18 418.51 L 244.92 404.86 C 244.92 404.86 244.92 404.86 244.92 404.86 C 246.59 401.47 250.06 399.31 253.84 399.31 C 257.63 399.31 261.1 401.47 262.78 404.86 C 262.78 404.86 262.78 404.86 262.78 404.86 L 269.51 418.51 L 284.58 420.7 C 288.32 421.24 291.45 423.88 292.61 427.47 C 292.94 428.47 293.1 429.51 293.1 430.55 C 293.1 433.24 292.02 435.81 290.09 437.68 L 279.19 448.31 L 281.82 463.63 L 281.88 464.37 C 281.9 464.57 281.91 464.78 281.91 464.99 C 281.91 468.18 280.38 471.19 277.8 473.06 C 276.1 474.29 274.05 474.96 271.95 474.96 C 270.34 474.96 268.76 474.57 267.34 473.82 C 267.33 473.82 267.32 473.82 267.31 473.81 L 253.84 466.73 Z  M 265.26 455.78 L 258.48 452.22 C 257.05 451.47 255.46 451.07 253.84 451.07 C 252.23 451.07 250.64 451.47 249.21 452.22 L 242.43 455.78 L 243.78 447.92 L 243.84 447.19 C 243.86 446.97 243.87 446.76 243.87 446.55 C 243.86 443.86 242.78 441.29 240.86 439.42 L 235.37 434.07 L 242.95 432.97 C 246.2 432.5 249 430.46 250.45 427.52 L 253.84 420.66 L 257.23 427.52 C 257.23 427.53 257.23 427.53 257.24 427.53 C 258.69 430.46 261.49 432.5 264.74 432.97 L 272.31 434.07 L 266.83 439.42 C 264.9 441.29 263.82 443.87 263.82 446.55 C 263.82 446.76 263.83 446.97 263.85 447.18 L 263.91 447.92 L 265.26 455.78 Z " fill-rule="evenodd" fill="rgb(3,94,140)"/><path d=" M 338.42 466.73 L 324.95 473.81 C 324.95 473.81 324.95 473.81 324.94 473.81 C 323.52 474.56 321.93 474.96 320.32 474.96 C 318.21 474.96 316.17 474.29 314.47 473.06 C 311.88 471.18 310.35 468.18 310.36 464.99 C 310.36 464.78 310.37 464.57 310.38 464.36 L 310.45 463.63 L 313.07 448.31 L 302.17 437.68 C 302.17 437.68 302.17 437.68 302.17 437.68 C 300.25 435.81 299.16 433.24 299.16 430.55 C 299.16 429.51 299.33 428.47 299.65 427.47 C 300.82 423.87 303.95 421.24 307.69 420.7 L 322.76 418.51 L 329.5 404.86 C 329.5 404.86 329.5 404.86 329.5 404.86 C 331.18 401.47 334.64 399.31 338.43 399.31 C 342.21 399.31 345.68 401.47 347.36 404.86 C 347.36 404.86 347.36 404.86 347.36 404.86 L 354.09 418.51 L 369.16 420.7 C 372.9 421.24 376.03 423.88 377.2 427.47 C 377.52 428.47 377.68 429.51 377.68 430.55 C 377.68 433.24 376.6 435.81 374.68 437.68 L 363.78 448.31 L 366.4 463.63 L 366.47 464.37 C 366.48 464.57 366.49 464.78 366.49 464.99 C 366.49 468.18 364.96 471.19 362.38 473.06 C 360.68 474.29 358.63 474.96 356.53 474.96 C 354.92 474.96 353.34 474.57 351.92 473.82 C 351.91 473.82 351.9 473.82 351.9 473.81 L 338.42 466.73 Z  M 349.84 455.78 L 343.06 452.22 C 341.63 451.47 340.04 451.07 338.42 451.07 C 336.81 451.07 335.22 451.47 333.79 452.22 L 327.01 455.78 L 328.36 447.92 L 328.42 447.19 C 328.44 446.97 328.45 446.76 328.45 446.55 C 328.45 443.86 327.36 441.29 325.44 439.42 L 319.96 434.07 L 327.54 432.97 C 330.78 432.5 333.59 430.46 335.04 427.52 L 338.43 420.66 L 341.82 427.52 C 341.82 427.53 341.82 427.53 341.82 427.53 C 343.27 430.46 346.08 432.5 349.32 432.97 L 356.89 434.07 L 351.41 439.42 C 349.49 441.29 348.4 443.87 348.4 446.55 C 348.4 446.76 348.41 446.97 348.43 447.18 L 348.49 447.92 L 349.84 455.78 Z " fill-rule="evenodd" fill="rgb(3,94,140)"/><path d=" M 423 466.73 L 409.53 473.81 C 409.53 473.81 409.53 473.81 409.53 473.81 C 408.1 474.56 406.51 474.96 404.9 474.96 C 402.8 474.96 400.75 474.29 399.05 473.06 C 396.47 471.18 394.94 468.18 394.94 464.99 C 394.94 464.78 394.95 464.57 394.96 464.36 L 395.03 463.63 L 397.65 448.31 L 386.75 437.68 C 386.75 437.68 386.75 437.68 386.75 437.68 C 384.83 435.81 383.75 433.24 383.75 430.55 C 383.75 429.51 383.91 428.47 384.23 427.47 C 385.4 423.87 388.53 421.24 392.27 420.7 L 407.34 418.51 L 414.08 404.86 C 414.08 404.86 414.08 404.86 414.08 404.86 C 415.76 401.47 419.23 399.31 423.01 399.31 C 426.79 399.31 430.26 401.47 431.94 404.86 C 431.94 404.86 431.94 404.86 431.94 404.86 L 438.67 418.51 L 453.74 420.7 C 457.48 421.24 460.61 423.88 461.78 427.47 C 462.1 428.47 462.27 429.51 462.27 430.55 C 462.27 433.24 461.18 435.81 459.26 437.68 L 448.36 448.31 L 450.99 463.63 L 451.05 464.37 C 451.06 464.57 451.07 464.78 451.07 464.99 C 451.08 468.18 449.54 471.19 446.96 473.06 C 445.26 474.29 443.21 474.96 441.11 474.96 C 439.51 474.96 437.92 474.57 436.5 473.82 C 436.49 473.82 436.49 473.82 436.48 473.81 L 423 466.73 Z  M 434.42 455.78 L 427.64 452.22 C 426.21 451.47 424.62 451.07 423 451.07 C 421.39 451.07 419.8 451.47 418.37 452.22 L 411.59 455.78 L 412.94 447.92 L 413 447.19 C 413.02 446.97 413.03 446.76 413.03 446.55 C 413.03 443.86 411.94 441.29 410.02 439.42 L 404.54 434.07 L 412.12 432.97 C 415.36 432.5 418.17 430.46 419.62 427.52 L 423.01 420.66 L 426.4 427.52 C 426.4 427.53 426.4 427.53 426.4 427.53 C 427.85 430.46 430.66 432.5 433.9 432.97 L 441.47 434.07 L 435.99 439.42 C 434.07 441.29 432.98 443.87 432.98 446.55 C 432.98 446.76 432.99 446.97 433.01 447.18 L 433.07 447.92 L 434.42 455.78 Z " fill-rule="evenodd" fill="rgb(3,94,140)"/><path d=" M 39.75 366.5 L 473.86 366.5 C 483.84 366.5 493.42 370.47 500.48 377.52 C 507.53 384.58 511.5 394.16 511.5 404.14 L 511.5 472.11 C 511.5 482.09 507.53 491.67 500.48 498.73 C 493.42 505.78 483.84 509.75 473.86 509.75 L 39.75 509.75 C 29.77 509.75 20.19 505.78 13.13 498.73 C 6.07 491.67 2.11 482.09 2.11 472.11 L 2.11 404.14 C 2.11 394.16 6.07 384.58 13.13 377.52 C 20.19 370.47 29.77 366.5 39.75 366.5 Z  M 39.75 381.5 L 473.86 381.5 C 479.86 381.5 485.62 383.89 489.87 388.13 C 494.11 392.38 496.5 398.14 496.5 404.14 L 496.5 472.11 C 496.5 478.12 494.11 483.88 489.87 488.12 C 485.62 492.37 479.86 494.75 473.86 494.75 L 39.75 494.75 C 33.74 494.75 27.98 492.37 23.74 488.12 C 19.49 483.88 17.11 478.12 17.11 472.11 L 17.11 404.14 C 17.11 398.14 19.49 392.38 23.74 388.13 C 27.98 383.89 33.74 381.5 39.75 381.5 Z " fill-rule="evenodd" fill="rgb(3,94,140)"/><path d=" M 432.104 180.1 C 450.946 161.342 445.124 123.399 412.488 123.399 L 326.614 123.457 C 329.875 105.271 334.599 75.126 334.412 72.28 C 332.609 45.324 315.426 12.517 314.683 11.174 C 311.549 5.338 295.726 -2.575 279.802 0.815 C 259.214 5.222 257.111 18.355 257.195 21.976 C 257.195 21.976 258.082 57.903 258.169 67.489 C 248.326 89.108 214.387 145.922 204.1 150.3 C 201.64 148.811 198.849 148.01 195.945 148.01 L 87.454 148.01 C 78.239 148.01 70.827 155.463 70.827 164.634 L 70.841 314.577 C 71.486 322.66 78.354 329 86.466 329 L 183.913 329 C 192.555 329 199.58 321.974 199.58 313.333 L 199.58 308.355 C 199.58 308.355 203.201 308.084 204.846 309.141 C 211.111 313.119 218.854 318.126 228.954 318.126 L 374.374 318.126 C 428.742 318.126 422.906 269.867 417.94 263.285 C 427.126 253.284 432.807 235.643 425.052 221.707 C 431.004 215.399 441.477 198.057 432.104 180.1 Z  M 180.566 313.304 L 86.437 313.304 L 86.437 163.661 L 180.566 163.661 L 180.566 313.304 Z  M 406.738 178.813 L 405.85 182.517 C 430.903 189.641 417.569 218.516 399.597 220.388 L 398.71 224.093 C 422.731 230.203 411.272 259.933 392.456 261.964 L 391.569 265.654 C 411.186 268.875 406.435 302.353 376.717 302.353 L 228.805 302.411 C 218.36 302.411 208.846 290.508 201.163 290.508 L 194.459 290.508 L 194.459 175.321 C 202.815 170.142 213.087 163.419 218.796 158.568 C 229.584 149.367 273.738 78.018 273.738 69.088 C 273.738 60.159 272.764 21.53 272.764 21.53 C 272.764 21.53 281.42 10.371 300.749 18.511 C 300.749 18.511 317.016 49.014 318.675 73.323 C 318.675 73.323 311.35 123.399 307.415 139.109 L 409.958 139.109 C 435.152 139.138 430.344 175.108 406.738 178.813 Z " fill="rgb(3,94,140)"/></g></svg>