<?xml version="1.0" encoding="UTF-8" standalone="no"?><!-- Generator: Gravit.io --><svg xmlns="http://www.w3.org/2000/svg" xmlns:xlink="http://www.w3.org/1999/xlink" style="isolation:isolate" viewBox="0 0 512 512" width="512pt" height="512pt"><defs><clipPath id="_clipPath_YC1ZmqifzooQ1aFp9zRXCSu1GAnph7Yl"><rect width="512" height="512"/></clipPath></defs><g clip-path="url(#_clipPath_YC1ZmqifzooQ1aFp9zRXCSu1GAnph7Yl)"><clipPath id="_clipPath_s6kF9ZkHEl5YbC7SplvzCNP2pzC2kAGC"><rect x="0" y="0" width="512" height="512" transform="matrix(1,0,0,1,0,0)" fill="rgb(255,255,255)"/></clipPath><g clip-path="url(#_clipPath_s6kF9ZkHEl5YbC7SplvzCNP2pzC2kAGC)"><g><g><g><path d=" M 476.158 286.938 L 462.899 233.903 C 466.524 233.133 469.244 229.917 469.244 226.064 L 469.244 217.513 C 469.244 198.947 454.139 183.843 435.574 183.843 L 375.182 183.843 L 375.182 166.206 C 375.182 157.07 367.75 149.638 358.614 149.638 L 246.32 149.638 L 314.56 122.342 C 318.671 120.698 320.67 116.032 319.026 111.921 C 317.382 107.811 312.719 105.81 308.605 107.455 L 252.731 129.804 C 269.757 118.88 286.602 106.857 293.015 98.449 C 305.5 82.08 302.338 58.606 285.969 46.121 C 269.6 33.635 246.126 36.798 233.641 53.167 C 224.519 65.129 212.483 98.74 204.693 122.425 C 196.903 98.742 184.867 65.129 175.745 53.167 C 163.261 36.798 139.786 33.637 123.417 46.121 C 107.048 58.605 103.887 82.079 116.371 98.449 C 122.784 106.858 139.628 118.88 156.655 129.804 L 100.781 107.455 C 96.668 105.808 92.004 107.81 90.36 111.921 C 88.715 116.032 90.715 120.698 94.826 122.342 L 163.066 149.638 L 50.772 149.638 C 41.636 149.638 34.204 157.07 34.204 166.206 L 34.204 311.576 C 34.204 316.003 37.793 319.593 42.221 319.593 C 46.648 319.593 50.238 316.004 50.238 311.576 L 50.238 166.206 C 50.238 165.911 50.477 165.672 50.772 165.672 L 358.613 165.672 C 358.908 165.672 359.147 165.911 359.147 166.206 L 359.147 311.578 C 359.147 316.005 362.736 319.595 367.164 319.595 C 371.591 319.595 375.181 316.006 375.181 311.578 L 375.181 302.49 L 469.747 302.49 C 469.756 302.49 469.763 302.492 469.772 302.492 C 469.781 302.492 469.789 302.491 469.798 302.491 C 481.434 302.5 491.314 310.138 494.706 320.662 L 469.778 320.662 C 465.351 320.662 461.761 324.251 461.761 328.679 L 461.761 345.781 C 461.761 359.632 473.029 370.9 486.88 370.9 L 495.966 370.9 L 495.966 406.173 L 475.004 406.173 C 468.118 386.291 449.217 371.968 427.022 371.968 C 404.827 371.968 385.925 386.29 379.04 406.173 L 375.18 406.173 L 375.18 345.78 C 375.18 341.353 371.591 337.763 367.163 337.763 C 362.736 337.763 359.146 341.352 359.146 345.78 L 359.146 406.172 L 192.817 406.172 C 185.931 386.29 167.03 371.967 144.835 371.967 C 122.64 371.967 103.738 386.289 96.853 406.172 L 50.772 406.172 C 50.477 406.172 50.238 405.933 50.238 405.638 L 50.238 388.001 L 84.977 388.001 C 89.404 388.001 92.994 384.412 92.994 379.984 C 92.994 375.556 89.405 371.967 84.977 371.967 L 8.017 371.967 C 3.59 371.967 0 375.556 0 379.984 C 0 384.412 3.589 388.001 8.017 388.001 L 34.205 388.001 L 34.205 405.638 C 34.205 414.774 41.637 422.206 50.773 422.206 L 94.077 422.206 C 94.075 422.384 94.063 422.561 94.063 422.74 C 94.063 450.735 116.84 473.512 144.835 473.512 C 172.83 473.512 195.607 450.735 195.607 422.74 C 195.607 422.56 195.595 422.384 195.593 422.206 L 376.263 422.206 C 376.261 422.384 376.249 422.561 376.249 422.74 C 376.249 450.735 399.026 473.512 427.021 473.512 C 455.016 473.512 477.793 450.735 477.793 422.74 C 477.793 422.56 477.781 422.384 477.779 422.206 L 503.982 422.206 C 508.409 422.206 511.999 418.617 511.999 414.189 L 511.999 328.678 C 512 307.564 496.423 290.022 476.158 286.938 Z  M 172.9 121.059 C 141.277 101.408 131.897 92.367 129.12 88.725 C 121.997 79.386 123.801 65.993 133.141 58.87 C 136.991 55.934 141.529 54.515 146.034 54.515 C 152.456 54.515 158.81 57.401 162.997 62.891 C 170.752 73.059 182.897 107.282 190.915 131.943 C 185.504 128.757 179.284 125.028 172.9 121.059 Z  M 218.473 131.942 C 226.491 107.282 238.636 73.06 246.39 62.89 C 253.513 53.551 266.906 51.748 276.245 58.87 C 285.585 65.993 287.388 79.386 280.266 88.725 C 277.489 92.366 268.109 101.408 236.488 121.058 C 230.105 125.026 223.885 128.756 218.473 131.942 Z  M 375.182 199.875 L 435.574 199.875 C 445.299 199.875 453.211 207.787 453.211 217.512 L 453.211 218.046 L 375.182 218.046 L 375.182 199.875 L 375.182 199.875 L 375.182 199.875 Z  M 375.182 286.456 L 375.182 234.08 L 446.417 234.08 L 459.511 286.456 L 375.182 286.456 L 375.182 286.456 L 375.182 286.456 Z  M 144.835 457.479 C 125.68 457.479 110.096 441.895 110.096 422.74 C 110.096 403.585 125.68 388.001 144.835 388.001 C 163.99 388.001 179.574 403.585 179.574 422.74 C 179.574 441.895 163.99 457.479 144.835 457.479 Z  M 427.023 457.479 C 407.868 457.479 392.284 441.895 392.284 422.74 C 392.284 403.585 407.868 388.001 427.023 388.001 C 446.178 388.001 461.762 403.585 461.762 422.74 C 461.762 441.895 446.178 457.479 427.023 457.479 Z  M 495.967 354.865 L 486.881 354.865 C 481.871 354.865 477.795 350.789 477.795 345.779 L 477.795 336.693 L 495.966 336.693 L 495.966 354.865 L 495.967 354.865 L 495.967 354.865 Z " fill="rgb(3,94,140)"/></g></g><g><g><path d=" M 144.835 406.172 C 135.699 406.172 128.267 413.604 128.267 422.74 C 128.267 431.876 135.699 439.308 144.835 439.308 C 153.971 439.308 161.403 431.876 161.403 422.74 C 161.403 413.604 153.971 406.172 144.835 406.172 Z " fill="rgb(3,94,140)"/></g></g><g><g><path d=" M 427.023 406.172 C 417.887 406.172 410.455 413.604 410.455 422.74 C 410.455 431.876 417.887 439.308 427.023 439.308 C 436.159 439.308 443.591 431.876 443.591 422.74 C 443.591 413.604 436.159 406.172 427.023 406.172 Z " fill="rgb(3,94,140)"/></g></g><g><g><path d=" M 332.96 371.967 L 213.244 371.967 C 208.817 371.967 205.227 375.556 205.227 379.984 C 205.227 384.412 208.816 388.001 213.244 388.001 L 332.96 388.001 C 337.387 388.001 340.977 384.412 340.977 379.984 C 340.977 375.556 337.388 371.967 332.96 371.967 Z " fill="rgb(3,94,140)"/></g></g><g><g><path d=" M 127.733 337.763 L 25.119 337.763 C 20.692 337.763 17.102 341.352 17.102 345.78 C 17.102 350.208 20.691 353.797 25.119 353.797 L 127.733 353.797 C 132.16 353.797 135.75 350.208 135.75 345.78 C 135.75 341.352 132.16 337.763 127.733 337.763 Z " fill="rgb(3,94,140)"/></g></g><g><g><path d=" M 127.733 218.046 L 93.528 218.046 C 89.101 218.046 85.511 221.635 85.511 226.063 L 85.511 294.472 C 85.511 298.899 89.1 302.489 93.528 302.489 C 97.956 302.489 101.545 298.9 101.545 294.472 L 101.545 268.284 L 119.182 268.284 C 123.609 268.284 127.199 264.695 127.199 260.267 C 127.199 255.839 123.61 252.25 119.182 252.25 L 101.545 252.25 L 101.545 234.08 L 127.733 234.08 C 132.16 234.08 135.75 230.491 135.75 226.063 C 135.749 221.636 132.16 218.046 127.733 218.046 Z " fill="rgb(3,94,140)"/></g></g><g><g><path d=" M 190.822 272.043 C 198.845 266.788 204.159 257.726 204.159 247.441 C 204.159 231.232 190.973 218.046 174.764 218.046 L 153.386 218.046 C 148.959 218.046 145.369 221.635 145.369 226.063 L 145.369 294.472 C 145.369 298.899 148.958 302.489 153.386 302.489 C 157.814 302.489 161.403 298.9 161.403 294.472 L 161.403 276.835 L 174.749 276.835 L 189.471 298.918 C 191.016 301.235 193.557 302.489 196.148 302.489 C 197.677 302.489 199.221 302.053 200.587 301.141 C 204.272 298.686 205.267 293.708 202.81 290.025 L 190.822 272.043 L 190.822 272.043 L 190.822 272.043 Z  M 174.764 260.802 L 161.403 260.802 L 161.403 234.08 L 174.764 234.08 C 182.132 234.08 188.125 240.073 188.125 247.441 C 188.125 254.809 182.132 260.802 174.764 260.802 Z " fill="rgb(3,94,140)"/></g></g><g><g><path d=" M 256 286.456 L 229.812 286.456 L 229.812 268.258 C 229.989 268.27 230.166 268.285 230.346 268.285 L 247.448 268.285 C 251.875 268.285 255.465 264.696 255.465 260.268 C 255.465 255.84 251.876 252.251 247.448 252.251 L 230.346 252.251 C 230.165 252.251 229.989 252.266 229.812 252.278 L 229.812 234.08 L 256 234.08 C 260.427 234.08 264.017 230.491 264.017 226.063 C 264.017 221.636 260.428 218.046 256 218.046 L 221.795 218.046 C 217.368 218.046 213.778 221.635 213.778 226.063 L 213.778 294.472 C 213.778 298.899 217.367 302.489 221.795 302.489 L 256 302.489 C 260.427 302.489 264.017 298.9 264.017 294.472 C 264.017 290.044 260.427 286.456 256 286.456 Z " fill="rgb(3,94,140)"/></g></g><g><g><path d=" M 315.858 286.456 L 289.67 286.456 L 289.67 268.285 L 298.756 268.285 C 303.183 268.285 306.773 264.696 306.773 260.268 C 306.773 255.84 303.184 252.251 298.756 252.251 L 289.67 252.251 L 289.67 234.08 L 315.858 234.08 C 320.285 234.08 323.875 230.491 323.875 226.063 C 323.875 221.636 320.286 218.046 315.858 218.046 L 281.653 218.046 C 277.226 218.046 273.636 221.635 273.636 226.063 L 273.636 294.472 C 273.636 298.899 277.225 302.489 281.653 302.489 L 315.858 302.489 C 320.285 302.489 323.875 298.9 323.875 294.472 C 323.875 290.044 320.285 286.456 315.858 286.456 Z " fill="rgb(3,94,140)"/></g></g></g></g></g></svg>