<?xml version="1.0" encoding="UTF-8" standalone="no"?><!-- Generator: Gravit.io --><svg xmlns="http://www.w3.org/2000/svg" xmlns:xlink="http://www.w3.org/1999/xlink" style="isolation:isolate" viewBox="0 0 496 496" width="496pt" height="496pt"><defs><clipPath id="_clipPath_bB7MhOmh9RqQ5j09z2s19GWZZxti0S3P"><rect width="496" height="496"/></clipPath></defs><g clip-path="url(#_clipPath_bB7MhOmh9RqQ5j09z2s19GWZZxti0S3P)"><clipPath id="_clipPath_Wc7hgE02bHkMLu3Geua45d4FoJqQo5tT"><rect x="0" y="0" width="496" height="496" transform="matrix(1,0,0,1,0,0)" fill="rgb(255,255,255)"/></clipPath><g clip-path="url(#_clipPath_Wc7hgE02bHkMLu3Geua45d4FoJqQo5tT)"><g><path d=" M 496 224 L 496 16 C 496 7.169 488.831 0 480 0 L 16 0 C 7.169 0 0 7.169 0 16 L 0 224 C 0 232.831 7.169 240 16 240 L 128 240 L 128 284.625 C 128 298.887 132.184 312.703 140.098 324.566 L 160 354.426 L 160 368 L 159 368 C 150.721 368 144 374.721 144 383 L 144 448 L 280.23 448 C 302.152 477.078 336.863 496 376 496 C 442.168 496 496 442.168 496 376 C 496 309.832 442.168 256 376 256 C 373.297 256 370.656 256.23 368 256.406 L 368 240 L 480 240 C 488.831 240 496 232.831 496 224 Z  M 160 432 L 160 387 C 160 385.344 161.344 384 163 384 L 256.406 384 C 257.551 401.238 262.266 417.504 269.953 432 L 160 432 L 160 432 Z  M 480 376 C 480 433.344 433.344 480 376 480 C 318.656 480 272 433.344 272 376 C 272 318.656 318.656 272 376 272 C 433.344 272 480 318.656 480 376 Z  M 352 258.414 C 299.84 269.047 260.016 313.648 256.406 368 L 176 368 L 176 349.574 L 153.406 315.688 C 147.258 306.457 144 295.711 144 284.625 L 144 224 L 20 224 C 17.792 224 16 222.208 16 220 L 16 20 C 16 17.792 17.792 16 20 16 L 476 16 C 478.208 16 480 17.792 480 20 L 480 220 C 480 222.208 478.208 224 476 224 L 192 224 L 192 187.922 C 207.574 200.84 227.145 208 248 208 L 422 208 C 427.519 208 432 204.415 432 200 L 432 200 C 432 186.77 442.77 176 456 176 L 456 176 C 460.415 176 464 171.519 464 166 L 464 74 C 464 68.481 460.415 64 456 64 L 456 64 C 442.77 64 432 53.23 432 40 L 432 40 C 432 35.585 427.519 32 422 32 L 74 32 C 68.481 32 64 35.585 64 40 L 64 40 C 64 53.23 53.23 64 40 64 L 40 64 C 35.585 64 32 68.481 32 74 L 32 166 C 32 171.519 35.585 176 40 176 L 40 176 C 53.23 176 64 186.77 64 200 L 64 200 C 64 204.415 68.481 208 74 208 L 144 208 L 144 152 C 144 143.176 151.176 136 160 136 C 168.824 136 176 143.176 176 152 L 176 272 L 184 272 C 206.055 272 224 289.945 224 312 L 240 312 C 240 283.832 219.105 260.465 192 256.566 L 192 240 L 352 240 L 352 258.414 L 352 258.414 Z  M 176.273 124.602 C 176.176 123.063 176 121.535 176 120 C 176 80.305 208.305 48 248 48 C 287.695 48 320 80.305 320 120 C 320 159.695 287.695 192 248 192 C 225.977 192 205.754 182.184 192 165.105 L 192 152 C 192 140.32 185.641 130.184 176.273 124.602 Z  M 160 120 C 142.352 120 128 134.352 128 152 L 128 192 L 79.191 192 C 76.008 176.352 63.648 163.992 48 160.809 L 48 79.191 C 63.648 76.008 76.008 63.648 79.191 48 L 197.559 48 C 174.887 63.938 160 90.238 160 120 Z  M 298.441 48 L 416.809 48 C 419.992 63.648 432.352 76.008 448 79.191 L 448 160.801 C 432.352 163.984 419.992 176.344 416.809 191.992 L 298.441 191.992 C 321.113 176.063 336 149.762 336 120 C 336 90.238 321.113 63.938 298.441 48 Z " fill="rgb(3,94,140)"/><path d=" M 248 144 C 243.594 144 240 140.406 240 136 L 224 136 C 224 146.414 230.711 155.215 240 158.527 L 240 176 L 256 176 L 256 158.527 C 265.289 155.215 272 146.414 272 136 C 272 122.77 261.23 112 248 112 C 243.594 112 240 108.406 240 104 C 240 99.594 243.594 96 248 96 C 252.406 96 256 99.594 256 104 L 272 104 C 272 93.586 265.289 84.785 256 81.473 L 256 64 L 240 64 L 240 81.473 C 230.711 84.785 224 93.586 224 104 C 224 117.23 234.77 128 248 128 C 252.406 128 256 131.594 256 136 C 256 140.406 252.406 144 248 144 Z " fill="rgb(3,94,140)"/><path d=" M 339.98 376.707 L 303.294 413.393 C 297.44 419.247 297.44 428.753 303.294 434.607 L 317.393 448.706 C 323.247 454.56 332.753 454.56 338.607 448.706 L 375.293 412.02 C 375.683 411.629 376.317 411.629 376.707 412.02 L 413.393 448.706 C 419.247 454.56 428.753 454.56 434.607 448.706 L 448.706 434.607 C 454.56 428.753 454.56 419.247 448.706 413.393 L 412.02 376.707 C 411.629 376.317 411.629 375.683 412.02 375.293 L 448.706 338.607 C 454.56 332.753 454.56 323.247 448.706 317.393 L 434.607 303.294 C 428.753 297.44 419.247 297.44 413.393 303.294 L 376.707 339.98 C 376.317 340.371 375.683 340.371 375.293 339.98 L 338.607 303.294 C 332.753 297.44 323.247 297.44 317.393 303.294 L 303.294 317.393 C 297.44 323.247 297.44 332.753 303.294 338.607 L 339.98 375.293 C 340.371 375.683 340.371 376.317 339.98 376.707 Z  M 378.121 361.191 L 421.879 317.434 C 423.049 316.263 424.951 316.263 426.121 317.434 L 434.566 325.879 C 435.737 327.049 435.737 328.951 434.566 330.121 L 390.809 373.879 C 389.638 375.049 389.638 376.951 390.809 378.121 L 434.566 421.879 C 435.737 423.049 435.737 424.951 434.566 426.121 L 426.121 434.566 C 424.951 435.737 423.049 435.737 421.879 434.566 L 378.121 390.809 C 376.951 389.638 375.049 389.638 373.879 390.809 L 330.121 434.566 C 328.951 435.737 327.049 435.737 325.879 434.566 L 317.434 426.121 C 316.263 424.951 316.263 423.049 317.434 421.879 L 361.191 378.121 C 362.362 376.951 362.362 375.049 361.191 373.879 L 317.434 330.121 C 316.263 328.951 316.263 327.049 317.434 325.879 L 325.879 317.434 C 327.049 316.263 328.951 316.263 330.121 317.434 L 373.879 361.191 C 375.049 362.362 376.951 362.362 378.121 361.191 Z " fill="rgb(3,94,140)"/><path d=" M 40 32 L 40 32 C 44.415 32 48 35.585 48 40 L 48 40 C 48 44.415 44.415 48 40 48 L 40 48 C 35.585 48 32 44.415 32 40 L 32 40 C 32 35.585 35.585 32 40 32 Z " fill="rgb(3,94,140)"/><path d=" M 40 192 L 40 192 C 44.415 192 48 195.585 48 200 L 48 200 C 48 204.415 44.415 208 40 208 L 40 208 C 35.585 208 32 204.415 32 200 L 32 200 C 32 195.585 35.585 192 40 192 Z " fill="rgb(3,94,140)"/><path d=" M 456 32 L 456 32 C 460.415 32 464 35.585 464 40 L 464 40 C 464 44.415 460.415 48 456 48 L 456 48 C 451.585 48 448 44.415 448 40 L 448 40 C 448 35.585 451.585 32 456 32 Z " fill="rgb(3,94,140)"/><path d=" M 456 192 L 456 192 C 460.415 192 464 195.585 464 200 L 464 200 C 464 204.415 460.415 208 456 208 L 456 208 C 451.585 208 448 204.415 448 200 L 448 200 C 448 195.585 451.585 192 456 192 Z " fill="rgb(3,94,140)"/></g></g></g></svg>