<?xml version="1.0" encoding="UTF-8" standalone="no"?><!-- Generator: Gravit.io --><svg xmlns="http://www.w3.org/2000/svg" xmlns:xlink="http://www.w3.org/1999/xlink" style="isolation:isolate" viewBox="0 0 512 512" width="512pt" height="512pt"><defs><clipPath id="_clipPath_9SQZSP3H1bsYZ9V90IyMqdzQBSutOZ6G"><rect width="512" height="512"/></clipPath></defs><g clip-path="url(#_clipPath_9SQZSP3H1bsYZ9V90IyMqdzQBSutOZ6G)"><g><path d=" M 256 32 C 379.5 32 480 132.5 480 256 C 480 379.5 379.5 480 256 480 C 132.5 480 32 379.5 32 256 C 32 132.5 132.5 32 256 32 Z  M 256 0 C 114.625 0 0 114.625 0 256 C 0 397.375 114.625 512 256 512 C 397.375 512 512 397.375 512 256 C 512 114.625 397.375 0 256 0 L 256 0 L 256 0 Z  M 398.719 341.594 L 397.281 337.219 C 393.906 327.157 382.781 316.657 372.531 313.844 L 334.688 303.5 C 324.438 300.719 309.813 304.469 302.283 312 L 288.595 325.688 C 238.845 312.219 199.814 273.188 186.376 223.438 L 200.064 209.75 C 207.564 202.25 211.314 187.625 208.533 177.344 L 198.219 139.5 C 195.438 129.25 184.875 118.125 174.813 114.75 L 170.5 113.312 C 160.406 109.937 146 113.343 138.5 120.875 L 118 141.375 C 114.344 145 112 155.406 112 155.438 C 111.312 220.501 136.813 283.157 182.813 329.188 C 228.688 375.063 291.126 400.533 355.969 399.969 C 356.313 399.969 367.032 397.688 370.688 394.031 L 391.188 373.531 C 398.688 366.062 402.062 351.656 398.719 341.594 Z " fill="rgb(255,255,255)"/></g></g></svg>