<?xml version="1.0" encoding="UTF-8" standalone="no"?><!-- Generator: Gravit.io --><svg xmlns="http://www.w3.org/2000/svg" xmlns:xlink="http://www.w3.org/1999/xlink" style="isolation:isolate" viewBox="0 0 899.5 160" width="899.5pt" height="160pt"><defs><clipPath id="_clipPath_nlYTRyfVVnUKqBxyrcQOfnhklxOXb7pb"><rect width="899.5" height="160"/></clipPath></defs><g clip-path="url(#_clipPath_nlYTRyfVVnUKqBxyrcQOfnhklxOXb7pb)"><g><g><path d=" M 152.751 53.481 C 152.649 48.986 152.036 44.694 150.81 40.403 C 147.949 30.288 142.125 22.524 132.726 17.517 C 126.391 14.146 119.648 12.715 112.598 12.511 C 105.753 12.204 98.907 12 92.062 12 C 80.21 12 68.358 12.102 56.609 12.307 C 51.807 12.409 47.005 12.715 42.203 13.839 C 35.46 15.372 29.636 18.232 24.527 22.932 C 17.375 29.471 13.8 37.747 12.778 47.147 C 12.165 52.255 11.858 57.466 11.858 62.676 C 11.654 74.017 11.756 85.256 11.756 96.597 C 11.756 104.157 11.756 111.718 12.778 119.176 C 13.595 124.489 15.128 129.598 17.784 134.093 C 24.425 145.026 34.336 150.645 46.903 152.28 C 51.909 152.893 57.017 153.199 62.024 153.199 C 77.452 153.301 92.777 153.199 108.205 152.995 C 113.211 152.995 118.32 152.484 123.224 151.36 C 131.704 149.215 138.754 144.923 144.169 138.078 C 148.971 131.743 151.423 124.592 152.138 116.724 C 152.751 109.981 152.751 103.238 152.955 96.495 C 153.057 91.897 152.955 87.299 152.955 82.702 C 152.955 82.702 152.955 63.187 152.751 53.481 Z  M 87.055 135.626 L 82.969 141.143 C 82.764 141.45 82.254 141.45 82.049 141.143 L 77.962 135.626 C 77.86 135.524 77.86 135.319 77.86 135.217 L 80.721 115.09 C 80.721 114.783 81.027 114.579 81.334 114.579 L 83.684 114.579 C 83.99 114.579 84.195 114.783 84.297 115.09 L 87.158 135.217 C 87.158 135.319 87.158 135.422 87.055 135.626 Z  M 114.335 134.4 C 113.722 135.013 112.905 135.319 111.883 135.319 L 101.359 135.319 C 99.418 135.319 97.988 133.787 97.988 131.846 C 97.988 130.926 98.396 130.007 98.907 129.394 C 99.52 128.78 100.338 128.474 101.359 128.474 L 111.883 128.474 C 113.824 128.474 115.254 130.007 115.254 131.846 C 115.357 132.867 114.948 133.685 114.335 134.4 Z  M 139.673 115.601 C 139.162 120.811 137.732 125.818 134.462 130.007 C 131.602 133.991 127.719 136.545 123.326 138.078 C 121.282 131.13 117.502 124.796 112.496 119.79 C 105.753 113.046 96.864 108.551 86.851 107.529 C 86.953 107.733 86.953 107.938 86.851 108.142 L 85.523 112.74 C 85.421 113.148 85.012 113.557 84.603 113.557 L 80.21 113.557 C 79.699 113.557 79.291 113.251 79.291 112.74 L 77.962 108.142 C 77.86 107.938 77.86 107.733 77.962 107.529 C 60.593 109.368 46.29 121.833 41.488 138.18 C 39.138 137.363 36.992 136.239 34.949 134.706 C 30.147 131.13 27.286 126.124 25.958 120.3 C 24.936 115.907 24.732 111.616 24.63 107.12 C 24.527 92.714 24.425 78.513 24.425 64.107 C 24.425 59.305 24.732 54.298 25.14 49.496 C 25.651 44.286 27.082 39.279 30.249 35.09 C 34.029 30.084 39.138 27.223 45.268 25.895 C 49.355 24.976 53.544 24.873 57.733 24.771 C 66.008 24.567 74.182 24.567 82.356 24.465 C 90.631 24.567 98.805 24.567 106.979 24.771 C 111.883 24.873 116.889 25.078 121.589 26.508 C 131.091 29.369 136.71 35.806 138.856 45.41 C 139.775 49.599 139.98 53.788 139.98 57.977 C 140.49 72.383 140.49 86.686 140.49 100.99 C 140.388 105.894 140.082 110.799 139.673 115.601 Z " fill="rgb(255,255,255)"/><g><path d=" M 113.783 71.77 C 113.783 80.25 110.513 88.117 104.588 93.941 C 98.662 99.867 90.795 103.136 82.417 103.136 L 82.315 103.136 C 65.048 103.136 50.846 88.935 50.948 71.566 C 50.948 63.188 54.218 55.321 60.144 49.497 C 66.069 43.571 73.937 40.404 82.212 40.404 L 82.315 40.404 C 99.786 40.302 113.885 54.401 113.783 71.77 Z " fill="rgb(255,255,255)"/></g></g></g><g><g><path d=" M 165.9 77.3 L 165.9 13.6 L 167.2 13.6 L 207.9 62.4 L 207.9 13.6 L 213.9 13.6 L 213.9 77.4 L 212.6 77.4 L 172.4 29.2 L 172.4 77.4 L 165.9 77.4 L 165.9 77.3 Z " fill="rgb(255,255,255)"/><path d=" M 272.7 30.2 L 272.7 77.3 L 267 77.3 L 267 69.2 C 264.6 72.3 261.8 74.6 258.8 76.1 C 255.7 77.7 252.5 78.4 248.9 78.4 C 242.5 78.4 237.1 76 232.6 71.2 C 228.1 66.4 225.9 60.4 225.9 53.5 C 225.9 46.7 228.1 40.9 232.7 36.1 C 237.3 31.3 242.8 28.9 249.1 28.9 C 252.8 28.9 256.1 29.8 259.2 31.3 C 262.2 32.9 264.8 35.5 267 38.8 L 267 30.2 C 267.1 30.2 272.7 30.2 272.7 30.2 Z  M 249.6 34.8 C 246.3 34.8 243.4 35.7 240.6 37.2 C 237.8 38.9 235.7 41.1 234.1 44.2 C 232.5 47.2 231.7 50.4 231.7 53.7 C 231.7 57 232.5 60.2 234.1 63.2 C 235.7 66.2 237.9 68.6 240.6 70.2 C 243.4 71.9 246.3 72.8 249.5 72.8 C 252.7 72.8 255.7 71.9 258.6 70.2 C 261.5 68.5 263.6 66.3 265.1 63.4 C 266.6 60.5 267.4 57.3 267.4 53.7 C 267.4 48.3 265.7 43.7 262.2 40.1 C 258.7 36.7 254.6 34.8 249.6 34.8 Z " fill="rgb(255,255,255)"/><path d=" M 285.7 30.2 L 291.5 30.2 L 291.5 38.3 C 293.5 35.3 295.6 33.1 297.7 31.7 C 300.7 29.9 303.7 28.9 307 28.9 C 309.1 28.9 311.3 29.3 313.2 30.3 C 315.1 31.2 316.8 32.4 318 33.9 C 319.2 35.4 320.3 37.5 321.3 40.3 C 323.2 36.6 325.7 33.8 328.5 31.9 C 331.4 30 334.5 29 337.9 29 C 341.1 29 343.8 29.9 346.2 31.4 C 348.5 33 350.4 35.3 351.5 38.3 C 352.6 41.3 353.2 45.6 353.2 51.5 L 353.2 77.3 L 347.3 77.3 L 347.3 51.6 C 347.3 46.6 347 43.1 346.3 41.2 C 345.6 39.3 344.5 37.8 342.7 36.6 C 341 35.4 339 34.9 336.7 34.9 C 333.8 34.9 331.3 35.8 329 37.5 C 326.7 39.2 324.9 41.5 323.9 44.4 C 322.8 47.3 322.3 52.1 322.3 58.9 L 322.3 77.3 L 316.4 77.3 L 316.4 53.2 C 316.4 47.6 316.1 43.6 315.4 41.6 C 314.7 39.6 313.6 38 311.8 36.7 C 310.1 35.4 308.1 34.9 305.8 34.9 C 303.2 34.9 300.6 35.8 298.3 37.5 C 296 39.2 294.2 41.4 293.1 44.3 C 292 47.2 291.5 51.5 291.5 57.4 L 291.5 77.3 L 285.7 77.3 L 285.7 30.2 L 285.7 30.2 Z " fill="rgb(255,255,255)"/><path d=" M 403.4 61.6 L 408.3 64.3 C 406.7 67.6 404.8 70.3 402.7 72.3 C 400.6 74.3 398.2 75.8 395.6 76.9 C 393 78 390 78.5 386.7 78.5 C 379.4 78.5 373.6 75.9 369.5 70.9 C 365.3 65.9 363.3 60.1 363.3 53.9 C 363.3 47.9 365 42.6 368.6 37.9 C 373.1 31.9 379 29 386.4 29 C 394 29 400.3 32.1 404.8 38.2 C 408.1 42.5 409.7 47.9 409.8 54.3 L 369.2 54.3 C 369.3 59.7 370.9 64.3 374.2 67.7 C 377.5 71.2 381.4 72.9 386.2 72.9 C 388.4 72.9 390.7 72.5 392.9 71.6 C 395 70.7 396.9 69.7 398.4 68.3 C 400 66.9 401.7 64.7 403.4 61.6 Z  M 403.4 48.9 C 402.6 45.7 401.5 43 400 41.1 C 398.5 39.2 396.5 37.6 394.1 36.4 C 391.7 35.2 389.1 34.6 386.5 34.6 C 382.1 34.6 378.2 36.1 375.1 39.1 C 372.8 41.2 371 44.5 369.8 48.8 L 403.4 48.9 L 403.4 48.9 Z " fill="rgb(255,255,255)"/><path d=" M 421.9 13.6 L 433.9 13.6 C 438.7 13.6 442.5 14.2 445 15.4 C 447.5 16.6 449.7 18.5 451.1 20.9 C 452.5 23.3 453.3 26.1 453.3 29.2 C 453.3 32.1 452.6 34.6 451.4 37 C 450.1 39.3 448.1 41.3 445.6 42.6 C 448.8 43.8 451.2 45 452.9 46.5 C 454.6 48 456 49.8 456.9 52 C 457.8 54.1 458.3 56.5 458.3 59 C 458.3 64.1 456.5 68.5 452.9 72 C 449.3 75.5 444.5 77.3 438.5 77.3 L 421.8 77.3 L 421.8 13.6 L 421.9 13.6 Z  M 427.8 19.9 L 427.8 40.3 L 431.3 40.3 C 435.6 40.3 438.6 39.9 440.7 39 C 442.8 38.1 444.3 36.9 445.4 35.1 C 446.5 33.3 447.1 31.4 447.1 29.1 C 447.1 26.2 446.1 23.9 444.1 22.3 C 442.2 20.6 439 19.9 434.8 19.9 C 434.8 19.9 427.8 19.9 427.8 19.9 Z  M 427.8 46.6 L 427.8 71 L 435.3 71 C 439.8 71 443 70.6 445.1 69.6 C 447.1 68.6 448.9 67.3 450.1 65.3 C 451.3 63.3 452 61.3 452 59 C 452 56.1 451.1 53.7 449.4 51.5 C 447.7 49.4 445.2 48 442.1 47.1 C 440.1 46.6 436.4 46.4 431.3 46.4 L 427.8 46.4 L 427.8 46.6 L 427.8 46.6 Z " fill="rgb(97,192,255)"/><path d=" M 514.5 30.2 L 514.5 77.3 L 508.8 77.3 L 508.8 69.2 C 506.4 72.3 503.6 74.6 500.6 76.1 C 497.5 77.7 494.3 78.4 490.7 78.4 C 484.3 78.4 478.9 76 474.4 71.2 C 469.9 66.4 467.7 60.4 467.7 53.5 C 467.7 46.7 469.9 40.9 474.5 36.1 C 479.1 31.3 484.6 28.9 490.9 28.9 C 494.6 28.9 497.9 29.8 501 31.3 C 504.1 32.9 506.6 35.5 508.8 38.8 L 508.8 30.2 C 508.8 30.2 514.5 30.2 514.5 30.2 Z  M 491.2 34.8 C 487.9 34.8 485 35.7 482.2 37.2 C 479.4 38.9 477.3 41.1 475.7 44.2 C 474.1 47.2 473.3 50.4 473.3 53.7 C 473.3 57 474.1 60.2 475.7 63.2 C 477.3 66.2 479.5 68.6 482.2 70.2 C 485 71.9 487.9 72.8 491.1 72.8 C 494.3 72.8 497.3 71.9 500.2 70.2 C 503.1 68.5 505.2 66.3 506.7 63.4 C 508.2 60.5 509 57.3 509 53.7 C 509 48.3 507.3 43.7 503.8 40.1 C 500.4 36.7 496.1 34.8 491.2 34.8 Z " fill="rgb(97,192,255)"/><path d=" M 572.5 12 L 572.5 77.4 L 566.8 77.4 L 566.8 69.3 C 564.4 72.4 561.6 74.7 558.6 76.2 C 555.5 77.8 552.3 78.5 548.7 78.5 C 542.3 78.5 536.9 76.1 532.4 71.3 C 527.9 66.5 525.7 60.5 525.7 53.6 C 525.7 46.8 527.9 41 532.5 36.2 C 537.1 31.4 542.6 29 548.9 29 C 552.6 29 555.9 29.9 559 31.4 C 562 33 564.6 35.6 566.8 38.9 L 566.8 12 L 572.5 12 Z  M 549.3 34.8 C 546 34.8 543.1 35.7 540.3 37.2 C 537.5 38.9 535.4 41.1 533.8 44.2 C 532.2 47.2 531.4 50.4 531.4 53.7 C 531.4 57 532.2 60.2 533.8 63.2 C 535.4 66.2 537.6 68.6 540.3 70.2 C 543.1 71.9 546 72.8 549.2 72.8 C 552.4 72.8 555.4 71.9 558.3 70.2 C 561.2 68.5 563.3 66.3 564.8 63.4 C 566.3 60.5 567.1 57.3 567.1 53.7 C 567.1 48.3 565.4 43.7 561.9 40.1 C 558.5 36.7 554.3 34.8 549.3 34.8 Z " fill="rgb(97,192,255)"/><path d=" M 624.6 30.2 L 630.4 30.2 L 630.4 67.8 C 630.4 74.4 629.9 79.2 628.8 82.3 C 627.3 86.7 624.6 90 620.9 92.3 C 617.1 94.6 612.6 95.8 607.3 95.8 C 603.4 95.8 600 95.3 596.9 94.1 C 593.8 92.9 591.3 91.4 589.4 89.5 C 587.5 87.6 585.7 84.7 584.1 81.1 L 590.4 81.1 C 592.1 84.2 594.4 86.5 597 88 C 599.8 89.5 603.1 90.2 607.1 90.2 C 611.1 90.2 614.4 89.5 617.1 87.9 C 619.9 86.4 621.8 84.4 622.9 82.2 C 624 79.9 624.6 76.1 624.6 70.9 L 624.6 68.5 C 622.5 71.4 619.7 73.6 616.6 75.1 C 613.4 76.7 610.1 77.4 606.5 77.4 C 602.3 77.4 598.5 76.3 594.8 74.2 C 591.1 72.1 588.4 69.2 586.3 65.5 C 584.3 61.9 583.3 57.8 583.3 53.5 C 583.3 49.2 584.3 45.1 586.4 41.4 C 588.4 37.7 591.4 34.7 595.1 32.5 C 598.8 30.3 602.6 29.2 606.7 29.2 C 610.1 29.2 613.2 29.9 616.2 31.4 C 619.2 32.9 621.9 35.2 624.7 38.6 L 624.6 30.2 L 624.6 30.2 Z  M 607.4 34.8 C 604.1 34.8 601.1 35.7 598.2 37.2 C 595.3 38.7 593.2 41.1 591.6 44.1 C 590 47.1 589.2 50.2 589.2 53.6 C 589.2 58.8 590.8 63.1 594.2 66.4 C 597.6 69.8 601.8 71.5 607 71.5 C 612.3 71.5 616.6 69.8 619.8 66.5 C 623.1 63.2 624.7 58.7 624.7 53.3 C 624.7 49.8 624 46.6 622.5 43.8 C 621 41 618.9 38.8 616.2 37.2 C 613.4 35.6 610.5 34.8 607.4 34.8 Z " fill="rgb(97,192,255)"/><path d=" M 680.8 61.6 L 685.7 64.3 C 684.1 67.6 682.2 70.3 680.1 72.3 C 678 74.3 675.6 75.8 673 76.9 C 670.4 78 667.4 78.5 664.1 78.5 C 656.8 78.5 651 75.9 646.9 70.9 C 642.7 65.9 640.7 60.1 640.7 53.9 C 640.7 47.9 642.4 42.6 646 37.9 C 650.5 31.9 656.4 29 663.8 29 C 671.4 29 677.7 32.1 682.2 38.2 C 685.5 42.5 687.1 47.9 687.2 54.3 L 646.6 54.3 C 646.7 59.7 648.3 64.3 651.6 67.7 C 654.9 71.2 658.8 72.9 663.6 72.9 C 665.8 72.9 668.1 72.5 670.3 71.6 C 672.4 70.7 674.3 69.7 675.8 68.3 C 677.3 66.9 679 64.7 680.8 61.6 Z  M 680.8 48.9 C 680 45.7 678.9 43 677.4 41.1 C 675.9 39.2 673.9 37.6 671.5 36.4 C 669.1 35.2 666.5 34.6 663.9 34.6 C 659.5 34.6 655.6 36.1 652.5 39.1 C 650.2 41.2 648.4 44.5 647.2 48.8 L 680.8 48.9 L 680.8 48.9 Z " fill="rgb(97,192,255)"/><path d=" M 704.3 67.8 C 705.7 67.8 706.9 68.3 707.9 69.4 C 708.9 70.5 709.4 71.7 709.4 73.2 C 709.4 74.7 708.9 76 707.9 77 C 706.9 78.1 705.7 78.6 704.3 78.6 C 702.9 78.6 701.7 78.1 700.7 77 C 699.7 75.9 699.2 74.7 699.2 73.2 C 699.2 71.7 699.7 70.4 700.7 69.4 C 701.8 68.3 702.9 67.8 704.3 67.8 Z " fill="rgb(255,255,255)"/><path d=" M 765.3 40 L 760.7 43 C 756.7 37.5 751.3 34.7 744.4 34.7 C 738.9 34.7 734.3 36.5 730.7 40.2 C 727 43.9 725.3 48.4 725.3 53.6 C 725.3 57 726.1 60.3 727.8 63.3 C 729.4 66.3 731.8 68.6 734.6 70.3 C 737.6 72 740.8 72.9 744.4 72.9 C 751 72.9 756.4 70.1 760.6 64.6 L 765.2 67.8 C 763.1 71.2 760.1 73.9 756.5 75.7 C 752.8 77.6 748.8 78.5 744.1 78.5 C 737 78.5 731.1 76.2 726.4 71.4 C 721.7 66.7 719.4 60.9 719.4 54.2 C 719.4 49.6 720.5 45.4 722.7 41.5 C 724.8 37.7 727.9 34.6 731.8 32.3 C 735.7 30 740 29 744.6 29 C 747.6 29 750.5 29.4 753.3 30.4 C 756.1 31.4 758.4 32.6 760.3 34.1 C 762.3 35.6 763.9 37.5 765.3 40 Z " fill="rgb(255,255,255)"/><path d=" M 797.7 28.9 C 804.6 28.9 810.4 31.6 814.9 36.8 C 819.1 41.6 821.1 47.2 821.1 53.8 C 821.1 60.4 818.9 66.2 814.5 71 C 810.1 75.8 804.5 78.3 797.6 78.3 C 790.7 78.3 785.1 75.9 780.7 71 C 776.3 66.1 774.1 60.4 774.1 53.8 C 774.1 47.3 776.1 41.7 780.3 36.9 C 785 31.6 790.8 28.9 797.7 28.9 Z  M 797.7 34.9 C 792.9 34.9 788.7 36.7 785.3 40.4 C 781.9 44.1 780.1 48.6 780.1 53.9 C 780.1 57.3 780.9 60.5 782.4 63.4 C 784 66.4 786.1 68.6 788.8 70.2 C 791.4 71.8 794.4 72.6 797.7 72.6 C 801 72.6 803.9 71.7 806.6 70.2 C 809.3 68.7 811.4 66.4 813 63.4 C 814.6 60.4 815.3 57.3 815.3 53.9 C 815.3 48.6 813.6 44.1 810.1 40.4 C 806.7 36.8 802.5 34.9 797.7 34.9 Z " fill="rgb(255,255,255)"/><path d=" M 832 30.2 L 837.8 30.2 L 837.8 38.3 C 839.8 35.3 841.9 33.1 844 31.7 C 847 29.9 850 28.9 853.3 28.9 C 855.4 28.9 857.6 29.3 859.5 30.3 C 861.4 31.2 863.1 32.4 864.3 33.9 C 865.5 35.4 866.6 37.5 867.6 40.3 C 869.5 36.6 872 33.8 874.8 31.9 C 877.7 30 880.8 29 884.2 29 C 887.4 29 890.1 29.9 892.5 31.4 C 894.8 33 896.7 35.3 897.8 38.3 C 898.9 41.3 899.5 45.6 899.5 51.5 L 899.5 77.3 L 893.5 77.3 L 893.5 51.6 C 893.5 46.6 893.2 43.1 892.5 41.2 C 891.8 39.3 890.7 37.8 888.9 36.6 C 887.2 35.4 885.2 34.9 882.9 34.9 C 880 34.9 877.5 35.8 875.2 37.5 C 872.9 39.2 871.1 41.5 870.1 44.4 C 869 47.3 868.5 52.1 868.5 58.9 L 868.5 77.3 L 862.7 77.3 L 862.7 53.2 C 862.7 47.6 862.4 43.6 861.7 41.6 C 861 39.6 859.9 38 858.1 36.7 C 856.4 35.4 854.4 34.9 852.1 34.9 C 849.5 34.9 846.9 35.8 844.6 37.5 C 842.3 39.2 840.5 41.4 839.4 44.3 C 838.3 47.2 837.8 51.5 837.8 57.4 L 837.8 77.3 L 832 77.3 L 832 30.2 L 832 30.2 Z " fill="rgb(255,255,255)"/></g><g><path d=" M 166 117.1 L 171.7 117.1 L 171.7 133.7 C 171.7 136.4 171.8 138 171.9 138.8 C 172.1 140.1 172.8 141.1 173.6 141.8 C 174.6 142.6 175.8 143 177.4 143 C 179 143 180.3 142.6 181.1 142 C 181.9 141.3 182.4 140.3 182.6 139.3 C 182.8 138.3 182.8 136.5 182.8 134.1 L 182.8 117.2 L 188.5 117.2 L 188.5 133.3 C 188.5 137 188.4 139.6 188.1 141 C 187.8 142.5 187.2 143.8 186.4 144.8 C 185.5 145.8 184.4 146.6 183 147.4 C 181.6 148.1 179.7 148.3 177.5 148.3 C 174.8 148.3 172.7 147.9 171.3 147.3 C 169.9 146.6 168.8 145.8 167.9 144.6 C 167 143.6 166.5 142.4 166.3 141.3 C 165.9 139.6 165.8 136.9 165.8 133.6 L 165.8 117.3 L 166 117.1 L 166 117.1 Z " fill="rgb(255,255,255)"/><path d=" M 195.2 147.8 L 195.2 117.2 L 200.8 117.2 L 212.5 137.7 L 212.5 117.2 L 217.9 117.2 L 217.9 147.8 L 212 147.8 L 200.4 127.7 L 200.4 147.8 L 195.2 147.8 Z " fill="rgb(255,255,255)"/><path d=" M 223.9 147.8 L 223.9 117.2 L 229.6 117.2 L 229.6 147.8 L 223.9 147.8 Z " fill="rgb(255,255,255)"/><path d=" M 241.6 147.8 L 241.6 122.3 L 233 122.3 L 233 117.1 L 255.8 117.1 L 255.8 122.3 L 247.4 122.3 L 247.4 147.8 L 241.6 147.8 Z " fill="rgb(255,255,255)"/><path d=" M 259.6 147.8 L 259.6 117.2 L 280.8 117.2 L 280.8 122.4 L 265.4 122.4 L 265.4 129.2 L 279.8 129.2 L 279.8 134.4 L 265.4 134.4 L 265.4 142.8 L 281.4 142.8 L 281.4 148 L 259.6 147.8 L 259.6 147.8 Z " fill="rgb(255,255,255)"/><path d=" M 286.3 117.1 L 297 117.1 C 299.4 117.1 301.2 117.4 302.4 117.7 C 304.1 118.3 305.5 119.2 306.7 120.5 C 307.9 121.9 308.9 123.5 309.4 125.5 C 310.1 127.4 310.4 129.9 310.4 132.8 C 310.4 135.4 310.1 137.6 309.5 139.2 C 308.7 141.4 307.8 143.2 306.5 144.6 C 305.5 145.6 304.1 146.4 302.4 147 C 301.1 147.5 299.4 147.7 297.3 147.7 L 286.4 147.7 L 286.4 117.1 L 286.3 117.1 Z  M 292.1 122.3 L 292.1 142.5 L 296.4 142.5 C 298 142.5 299.2 142.4 299.9 142.1 C 300.9 141.8 301.6 141.4 302.3 140.8 C 303 140.2 303.4 139.1 303.8 137.8 C 304.2 136.5 304.3 134.6 304.3 132.3 C 304.3 130 304.1 128.2 303.8 126.9 C 303.4 125.6 302.8 124.7 302.2 123.9 C 301.4 123.2 300.6 122.7 299.5 122.5 C 298.7 122.2 297.1 122.1 294.7 122.1 L 292.1 122.1 L 292.1 122.3 L 292.1 122.3 Z " fill="rgb(255,255,255)"/><path d=" M 325.1 137.9 L 330.7 137.3 C 331 139.2 331.7 140.8 332.8 141.7 C 333.9 142.6 335.2 143.1 337 143.1 C 338.8 143.1 340.3 142.6 341.2 141.8 C 342.2 141 342.6 140 342.6 138.8 C 342.6 138.1 342.4 137.4 341.9 137 C 341.5 136.5 340.8 136.1 339.8 135.7 C 339.1 135.4 337.5 135 335.1 134.3 C 332 133.5 329.8 132.5 328.6 131.3 C 326.9 129.6 326 127.6 326 125.1 C 326 123.6 326.4 122.1 327.2 120.7 C 328.1 119.3 329.3 118.3 330.8 117.6 C 332.3 116.9 334.3 116.6 336.4 116.6 C 340 116.6 342.7 117.4 344.5 119.2 C 346.3 120.9 347.3 123.2 347.3 125.9 L 341.6 126.2 C 341.4 124.5 340.8 123.5 340 122.9 C 339.1 122.2 337.9 121.9 336.3 121.9 C 334.6 121.9 333.3 122.3 332.4 123.1 C 331.7 123.6 331.5 124.3 331.5 124.9 C 331.5 125.6 331.8 126.3 332.4 126.7 C 333.2 127.4 334.9 128.1 337.7 128.8 C 340.5 129.5 342.6 130.2 344 131 C 345.3 131.8 346.4 132.8 347.1 134.1 C 347.9 135.4 348.3 137 348.3 139 C 348.3 140.7 347.9 142.3 346.9 144 C 346 145.5 344.7 146.7 343 147.5 C 341.4 148.2 339.2 148.7 336.7 148.7 C 333.1 148.7 330.3 147.8 328.4 146 C 326.6 143.8 325.4 141.2 325.1 137.9 Z " fill="rgb(255,255,255)"/><path d=" M 359.6 147.8 L 359.6 122.3 L 351.1 122.3 L 351.1 117.1 L 373.9 117.1 L 373.9 122.3 L 365.5 122.3 L 365.5 147.8 L 359.6 147.8 Z " fill="rgb(255,255,255)"/><path d=" M 400.6 147.8 L 394.3 147.8 L 391.8 140.9 L 380.3 140.9 L 377.9 147.8 L 371.7 147.8 L 382.9 117.2 L 389.1 117.2 L 400.6 147.8 Z  M 389.8 135.6 L 385.9 124.3 L 382 135.6 L 389.8 135.6 Z " fill="rgb(255,255,255)"/><path d=" M 407.2 147.8 L 407.2 122.3 L 398.6 122.3 L 398.6 117.1 L 421.4 117.1 L 421.4 122.3 L 413.1 122.3 L 413.1 147.8 L 407.2 147.8 Z " fill="rgb(255,255,255)"/><path d=" M 425.3 147.8 L 425.3 117.2 L 446.5 117.2 L 446.5 122.4 L 431 122.4 L 431 129.2 L 445.4 129.2 L 445.4 134.4 L 431 134.4 L 431 142.8 L 447 142.8 L 447 148 L 425.3 147.8 L 425.3 147.8 Z " fill="rgb(255,255,255)"/><path d=" M 450.5 137.9 L 456.1 137.3 C 456.4 139.2 457.1 140.8 458.2 141.7 C 459.3 142.6 460.6 143.1 462.4 143.1 C 464.2 143.1 465.7 142.6 466.6 141.8 C 467.6 141 468 140 468 138.8 C 468 138.1 467.8 137.4 467.3 137 C 466.9 136.5 466.2 136.1 465.2 135.7 C 464.5 135.4 462.9 135 460.5 134.3 C 457.4 133.5 455.2 132.5 454 131.3 C 452.3 129.6 451.4 127.6 451.4 125.1 C 451.4 123.6 451.8 122.1 452.6 120.7 C 453.5 119.3 454.7 118.3 456.2 117.6 C 457.7 116.9 459.7 116.6 461.8 116.6 C 465.4 116.6 468.1 117.4 469.9 119.2 C 471.7 120.9 472.7 123.2 472.7 125.9 L 467 126.3 C 466.8 124.6 466.2 123.6 465.4 123 C 464.5 122.3 463.3 122 461.7 122 C 460 122 458.7 122.4 457.8 123.2 C 457.1 123.7 456.9 124.4 456.9 125 C 456.9 125.7 457.2 126.4 457.8 126.8 C 458.6 127.5 460.3 128.2 463.1 128.9 C 465.9 129.6 468 130.3 469.4 131.1 C 470.7 131.9 471.8 132.9 472.5 134.2 C 473.3 135.5 473.7 137.1 473.7 139.1 C 473.7 140.8 473.3 142.4 472.3 144.1 C 471.4 145.6 470.1 146.8 468.4 147.6 C 466.8 148.3 464.6 148.8 462.1 148.8 C 458.5 148.8 455.7 147.9 453.8 146.1 C 452 143.8 450.8 141.2 450.5 137.9 Z " fill="rgb(255,255,255)"/><path d=" M 515.2 144.1 L 511.8 148.6 C 510.2 147.8 508.7 146.7 507.1 145.1 C 505.9 146.3 504.7 147 503.4 147.5 C 502.1 148.1 500.6 148.3 498.7 148.3 C 495.1 148.3 492.4 147.3 490.7 145.1 C 489.3 143.4 488.6 141.5 488.6 139.4 C 488.6 137.5 489.1 135.7 490.2 134.1 C 491.3 132.4 492.9 131.2 495.1 130.1 C 494.1 128.8 493.4 127.7 492.9 126.5 C 492.4 125.3 492.1 124.3 492.1 123.3 C 492.1 121.5 492.8 119.8 494.2 118.5 C 495.6 117.2 497.6 116.6 500.2 116.6 C 502.7 116.6 504.6 117.3 506.1 118.7 C 507.5 120.1 508.2 121.7 508.2 123.7 C 508.2 125 507.9 126.1 507.1 127.2 C 506.5 128.4 505 129.6 502.9 131 L 506.9 136.7 C 507.3 135.8 507.8 134.6 508.1 133.2 L 513.1 134.4 C 512.6 136.2 512.1 137.6 511.8 138.5 C 511.5 139.4 511 140.2 510.6 140.7 C 511.2 141.3 512 142 513 142.6 C 514 143.3 514.7 143.8 515.2 144.1 Z  M 498.1 133.8 C 496.8 134.5 495.9 135.3 495.3 136.2 C 494.6 137.1 494.3 138.1 494.3 139.1 C 494.3 140.4 494.7 141.4 495.5 142.2 C 496.3 143 497.3 143.4 498.6 143.4 C 499.5 143.4 500.3 143.1 501.1 142.8 C 501.9 142.4 502.7 141.9 503.7 141 L 498.1 133.8 Z  M 500.1 127.5 L 501.6 126.3 C 502.7 125.4 503.2 124.5 503.2 123.6 C 503.2 122.7 503 122.2 502.4 121.7 C 501.9 121.1 501.2 120.9 500.2 120.9 C 499.3 120.9 498.7 121.2 498.1 121.6 C 497.6 122.1 497.3 122.6 497.3 123.3 C 497.3 124 497.7 125 498.6 126 L 500.1 127.5 Z " fill="rgb(255,255,255)"/><path d=" M 548.2 136.6 L 553.8 138.4 C 552.9 141.7 551.5 144.2 549.5 145.8 C 547.5 147.4 544.9 148.2 541.9 148.2 C 538.1 148.2 535 146.8 532.5 144.1 C 530 141.3 528.8 137.5 528.8 132.8 C 528.8 127.7 530 123.8 532.5 120.8 C 535 118 538.2 116.5 542.3 116.5 C 545.8 116.5 548.7 117.7 550.9 119.8 C 552.2 121.1 553.2 123 553.8 125.5 L 548.1 127 C 547.8 125.3 547 124.1 545.9 123.3 C 544.8 122.4 543.5 121.9 542 121.9 C 539.8 121.9 538.1 122.7 536.8 124.3 C 535.5 126 534.8 128.6 534.8 132.2 C 534.8 136 535.5 138.8 536.8 140.4 C 538.1 142.1 539.8 142.8 541.9 142.8 C 543.4 142.8 544.7 142.2 545.9 141.1 C 547 140.4 547.8 138.8 548.2 136.6 Z " fill="rgb(255,255,255)"/><path d=" M 584.7 147.8 L 578.4 147.8 L 575.9 140.9 L 564.4 140.9 L 562 147.8 L 555.8 147.8 L 567 117.2 L 573.2 117.2 L 584.7 147.8 Z  M 574 135.6 L 570.1 124.3 L 566.2 135.6 L 574 135.6 Z " fill="rgb(255,255,255)"/><path d=" M 587.9 147.8 L 587.9 117.2 L 593.5 117.2 L 605.2 137.7 L 605.2 117.2 L 610.6 117.2 L 610.6 147.8 L 604.7 147.8 L 593.1 127.7 L 593.1 147.8 L 587.9 147.8 Z " fill="rgb(255,255,255)"/><path d=" M 642.7 147.8 L 636.4 147.8 L 633.9 140.9 L 622.4 140.9 L 620 147.8 L 613.8 147.8 L 625 117.2 L 631.2 117.2 L 642.7 147.8 Z  M 632 135.6 L 628.1 124.3 L 624.2 135.6 L 632 135.6 Z " fill="rgb(255,255,255)"/><path d=" M 645.7 117.1 L 656.3 117.1 C 658.7 117.1 660.5 117.4 661.7 117.7 C 663.4 118.3 664.8 119.2 666 120.5 C 667.2 121.9 668.2 123.5 668.7 125.5 C 669.4 127.4 669.7 129.9 669.7 132.8 C 669.7 135.4 669.4 137.6 668.8 139.2 C 668 141.4 667.1 143.2 665.8 144.6 C 664.8 145.6 663.4 146.4 661.7 147 C 660.4 147.5 658.7 147.7 656.6 147.7 L 645.7 147.7 L 645.7 117.1 L 645.7 117.1 Z  M 651.5 122.3 L 651.5 142.5 L 655.8 142.5 C 657.4 142.5 658.6 142.4 659.3 142.1 C 660.3 141.8 661 141.4 661.7 140.8 C 662.3 140.2 662.8 139.1 663.2 137.8 C 663.6 136.5 663.7 134.6 663.7 132.3 C 663.7 130 663.5 128.2 663.2 126.9 C 662.8 125.6 662.2 124.7 661.6 123.9 C 660.8 123.2 660 122.7 658.9 122.5 C 658.1 122.2 656.5 122.1 654.1 122.1 L 651.5 122.1 L 651.5 122.3 L 651.5 122.3 Z " fill="rgb(255,255,255)"/><path d=" M 700.4 147.8 L 694.1 147.8 L 691.6 140.9 L 680.1 140.9 L 677.7 147.8 L 671.5 147.8 L 682.7 117.2 L 688.9 117.2 L 700.4 147.8 Z  M 689.8 135.6 L 685.9 124.3 L 682 135.6 L 689.8 135.6 Z " fill="rgb(255,255,255)"/></g></g></g></svg>