<?xml version="1.0" encoding="utf-8"?>
<!-- Generator: Adobe Illustrator 21.0.0, SVG Export Plug-In . SVG Version: 6.00 Build 0)  -->
<svg version="1.1" id="Layer_1" xmlns="http://www.w3.org/2000/svg" xmlns:xlink="http://www.w3.org/1999/xlink" x="0px" y="0px"
	 width="899.5px" height="160px" viewBox="0 0 899.5 160" style="enable-background:new 0 0 899.5 160;" xml:space="preserve">
<style type="text/css">
	.st0{fill:#3780B3;}
	.st1{opacity:0.54;fill:#75B4E2;enable-background:new    ;}
	.st2{opacity:0.22;fill:#75B4E2;enable-background:new    ;}
	.st3{fill:#FFFFFF;}
	.st4{fill:#231F20;}
	.st5{fill:#129BF9;}
	.st6{fill:#EC2024;}
	.st7{fill:#BF0A30;}
	.st8{fill:#002868;}
</style>
<g>
	<g>
		<g>
			<path class="st0" d="M153.9,80.1c0,5,0.1,10.1,0,15.1c-0.2,7.3-0.2,14.7-0.9,22c-0.7,8.4-3.3,16.4-8.6,23.3
				c-5.9,7.6-13.6,12.2-22.9,14.5c-4.9,1.2-9.9,1.7-14.9,1.8c-0.5,0-1,0-1.5,0c-16.8,0.1-33.5,0.2-50.3,0.2c-5.5,0-11-0.3-16.5-0.9
				c-13.6-1.6-24.5-7.8-31.6-19.7c-3-5-4.7-10.5-5.5-16.3C-0.1,111.8,0,103.5,0,95.3C0,83-0.1,70.7,0.1,58.4c0.1-5.7,0.3-11.4,1-17
				c1.2-10.3,5.1-19.3,12.8-26.5c5.5-5.1,12.1-8.3,19.3-10c5.1-1.2,10.3-1.6,15.7-1.7C61.7,3.1,74.6,3,87.5,3
				c7.4,0,14.9,0.2,22.3,0.5c7.7,0.3,15.2,1.8,22,5.5c4.6,2.5,8.4,5.5,11.4,9.1c3.8,4.5,6.5,9.7,8.2,15.8c1.3,4.7,2,9.4,2.1,14.2
				C153.7,58.9,153.9,80.1,153.9,80.1z"/>
		</g>
		<path class="st1" d="M153.9,80.1c0,5.8,0,11.6-0.2,17.4c-0.3,14.9,0.4,30.6-9.4,43c-5.9,7.6-13.6,12.2-22.9,14.5
			c-4.9,1.2-9.9,1.7-14.9,1.8C78.2,134.1,60.3,96,60.3,96c21.5-7.6,44.7-19.4,65.5-37.4c8.8-7.7,17.2-16.4,24.9-26.6
			c-0.2-0.7-0.4-1.2-0.7-1.9c0.5,1.2,0.9,2.6,1.2,3.9c1.3,4.7,2,9.4,2.1,14.2C153.7,58.9,153.9,69.4,153.9,80.1z"/>
		<path class="st2" d="M150.8,31.9c-7.7,10.1-16,18.9-24.9,26.6C81.5,97,25.9,106.8,0.2,109.3C0,104.7,0,99.9,0,95.3
			C0,83-0.1,70.7,0.1,58.4c0.1-5.7,0.3-11.4,1-17c1.2-10.3,5.1-19.3,12.8-26.5c5.5-5.1,12.1-8.3,19.3-10c5.1-1.2,10.3-1.6,15.7-1.7
			c10-0.1,19.9-0.2,30-0.3c2.8,0,5.8,0,8.6,0c7.4,0,14.9,0.2,22.3,0.5c7.7,0.3,15.2,1.8,22,5.5C141.3,14.2,147.6,22,150.8,31.9z"/>
	</g>
	<g>
		<path class="st3" d="M145.8,51.5c-0.1-4.4-0.7-8.6-1.9-12.8c-2.8-9.9-8.5-17.5-17.7-22.4c-6.2-3.3-12.8-4.7-19.7-4.9
			c-6.7-0.3-13.4-0.5-20.1-0.5c-11.6,0-23.2,0.1-34.7,0.3c-4.7,0.1-9.4,0.4-14.1,1.5C31,14.2,25.3,17,20.3,21.6
			C13.3,28,9.8,36.1,8.8,45.3c-0.6,5-0.9,10.1-0.9,15.2C7.7,71.6,7.8,82.6,7.8,93.7c0,7.4,0,14.8,1,22.1c0.8,5.2,2.3,10.2,4.9,14.6
			c6.5,10.7,16.2,16.2,28.5,17.8c4.9,0.6,9.9,0.9,14.8,0.9c15.1,0.1,30.1,0,45.2-0.2c4.9,0,9.9-0.5,14.7-1.6
			c8.3-2.1,15.2-6.3,20.5-13c4.7-6.2,7.1-13.2,7.8-20.9c0.6-6.6,0.6-13.2,0.8-19.8c0.1-4.5,0-9,0-13.5C146,80.1,146,61,145.8,51.5z
			 M81.5,131.9l-4,5.4c-0.2,0.3-0.7,0.3-0.9,0l-4-5.4c-0.1-0.1-0.1-0.3-0.1-0.4l2.8-19.7c0-0.3,0.3-0.5,0.6-0.5h2.3
			c0.3,0,0.5,0.2,0.6,0.5l2.8,19.7C81.6,131.6,81.6,131.7,81.5,131.9z M108.2,130.7c-0.6,0.6-1.4,0.9-2.4,0.9H95.5
			c-1.9,0-3.3-1.5-3.3-3.4c0-0.9,0.4-1.8,0.9-2.4c0.6-0.6,1.4-0.9,2.4-0.9h10.3c1.9,0,3.3,1.5,3.3,3.3
			C109.2,129.2,108.8,130,108.2,130.7z M133,112.3c-0.5,5.1-1.9,10-5.1,14.1c-2.8,3.9-6.6,6.4-10.9,7.9c-2-6.8-5.7-13-10.6-17.9
			c-6.6-6.6-15.3-11-25.1-12c0.1,0.2,0.1,0.4,0,0.6l-1.3,4.5c-0.1,0.4-0.5,0.8-0.9,0.8h-4.3c-0.5,0-0.9-0.3-0.9-0.8l-1.3-4.5
			c-0.1-0.2-0.1-0.4,0-0.6c-17,1.8-31,14-35.7,30c-2.3-0.8-4.4-1.9-6.4-3.4c-4.7-3.5-7.5-8.4-8.8-14.1c-1-4.3-1.2-8.5-1.3-12.9
			c-0.1-14.1-0.2-28-0.2-42.1c0-4.7,0.3-9.6,0.7-14.3c0.5-5.1,1.9-10,5-14.1c3.7-4.9,8.7-7.7,14.7-9c4-0.9,8.1-1,12.2-1.1
			c8.1-0.2,16.1-0.2,24.1-0.3C85,23.2,93,23.2,101,23.4c4.8,0.1,9.7,0.3,14.3,1.7c9.3,2.8,14.8,9.1,16.9,18.5
			c0.9,4.1,1.1,8.2,1.1,12.3c0.5,14.1,0.5,28.1,0.5,42.1C133.7,102.8,133.4,107.6,133,112.3z"/>
		<g>
			<path class="st3" d="M107.7,66.3c0,8.3-3.2,16-9,21.7c-5.8,5.8-13.5,9-21.7,9h-0.1C60,97,46.1,83.1,46.2,66.1
				c0-8.2,3.2-15.9,9-21.6c5.8-5.8,13.5-8.9,21.6-8.9h0.1C94,35.5,107.8,49.3,107.7,66.3z"/>
		</g>
	</g>
</g>
<g>
	<g>
		<path class="st4" d="M165.9,75.9V12.2h1.3L207.9,61V12.2h6v63.8h-1.3l-40.2-48.2v48.2H165.9z"/>
		<path class="st4" d="M272.7,28.8v47.1H267v-8.1c-2.4,3.1-5.2,5.4-8.2,6.9c-3.1,1.6-6.3,2.3-9.9,2.3c-6.4,0-11.8-2.4-16.3-7.2
			c-4.5-4.8-6.7-10.8-6.7-17.7c0-6.8,2.2-12.6,6.8-17.4c4.6-4.8,10.1-7.2,16.4-7.2c3.7,0,7,0.9,10.1,2.4c3,1.6,5.6,4.2,7.8,7.5v-8.6
			C267.1,28.8,272.7,28.8,272.7,28.8z M249.6,33.4c-3.3,0-6.2,0.9-9,2.4c-2.8,1.7-4.9,3.9-6.5,7c-1.6,3-2.4,6.2-2.4,9.5
			s0.8,6.5,2.4,9.5c1.6,3,3.8,5.4,6.5,7c2.8,1.7,5.7,2.6,8.9,2.6c3.2,0,6.2-0.9,9.1-2.6c2.9-1.7,5-3.9,6.5-6.8
			c1.5-2.9,2.3-6.1,2.3-9.7c0-5.4-1.7-10-5.2-13.6C258.7,35.3,254.6,33.4,249.6,33.4z"/>
		<path class="st4" d="M285.7,28.8h5.8v8.1c2-3,4.1-5.2,6.2-6.6c3-1.8,6-2.8,9.3-2.8c2.1,0,4.3,0.4,6.2,1.4c1.9,0.9,3.6,2.1,4.8,3.6
			c1.2,1.5,2.3,3.6,3.3,6.4c1.9-3.7,4.4-6.5,7.2-8.4c2.9-1.9,6-2.9,9.4-2.9c3.2,0,5.9,0.9,8.3,2.4c2.3,1.6,4.2,3.9,5.3,6.9
			c1.1,3,1.7,7.3,1.7,13.2v25.8h-5.9V50.2c0-5-0.3-8.5-1-10.4s-1.8-3.4-3.6-4.6c-1.7-1.2-3.7-1.7-6-1.7c-2.9,0-5.4,0.9-7.7,2.6
			c-2.3,1.7-4.1,4-5.1,6.9c-1.1,2.9-1.6,7.7-1.6,14.5v18.4h-5.9V51.8c0-5.6-0.3-9.6-1-11.6c-0.7-2-1.8-3.6-3.6-4.9
			c-1.7-1.3-3.7-1.8-6-1.8c-2.6,0-5.2,0.9-7.5,2.6c-2.3,1.7-4.1,3.9-5.2,6.8c-1.1,2.9-1.6,7.2-1.6,13.1v19.9h-5.8V28.8L285.7,28.8z"
			/>
		<path class="st4" d="M403.4,60.2l4.9,2.7c-1.6,3.3-3.5,6-5.6,8c-2.1,2-4.5,3.5-7.1,4.6c-2.6,1.1-5.6,1.6-8.9,1.6
			c-7.3,0-13.1-2.6-17.2-7.6c-4.2-5-6.2-10.8-6.2-17c0-6,1.7-11.3,5.3-16c4.5-6,10.4-8.9,17.8-8.9c7.6,0,13.9,3.1,18.4,9.2
			c3.3,4.3,4.9,9.7,5,16.1h-40.6c0.1,5.4,1.7,10,5,13.4c3.3,3.5,7.2,5.2,12,5.2c2.2,0,4.5-0.4,6.7-1.3c2.1-0.9,4-1.9,5.5-3.3
			C400,65.5,401.7,63.3,403.4,60.2z M403.4,47.5c-0.8-3.2-1.9-5.9-3.4-7.8c-1.5-1.9-3.5-3.5-5.9-4.7c-2.4-1.2-5-1.8-7.6-1.8
			c-4.4,0-8.3,1.5-11.4,4.5c-2.3,2.1-4.1,5.4-5.3,9.7L403.4,47.5L403.4,47.5z"/>
		<path class="st5" d="M421.9,12.2h12c4.8,0,8.6,0.6,11.1,1.8c2.5,1.2,4.7,3.1,6.1,5.5c1.4,2.4,2.2,5.2,2.2,8.3
			c0,2.9-0.7,5.4-1.9,7.8c-1.3,2.3-3.3,4.3-5.8,5.6c3.2,1.2,5.6,2.4,7.3,3.9c1.7,1.5,3.1,3.3,4,5.5c0.9,2.1,1.4,4.5,1.4,7
			c0,5.1-1.8,9.5-5.4,13s-8.4,5.3-14.4,5.3h-16.7V12.2H421.9z M427.8,18.5v20.4h3.5c4.3,0,7.3-0.4,9.4-1.3c2.1-0.9,3.6-2.1,4.7-3.9
			c1.1-1.8,1.7-3.7,1.7-6c0-2.9-1-5.2-3-6.8c-1.9-1.7-5.1-2.4-9.3-2.4C434.8,18.5,427.8,18.5,427.8,18.5z M427.8,45.2v24.4h7.5
			c4.5,0,7.7-0.4,9.8-1.4c2-1,3.8-2.3,5-4.3c1.2-2,1.9-4,1.9-6.3c0-2.9-0.9-5.3-2.6-7.5c-1.7-2.1-4.2-3.5-7.3-4.4
			c-2-0.5-5.7-0.7-10.8-0.7h-3.5V45.2L427.8,45.2z"/>
		<path class="st5" d="M514.5,28.8v47.1h-5.7v-8.1c-2.4,3.1-5.2,5.4-8.2,6.9c-3.1,1.6-6.3,2.3-9.9,2.3c-6.4,0-11.8-2.4-16.3-7.2
			c-4.5-4.8-6.7-10.8-6.7-17.7c0-6.8,2.2-12.6,6.8-17.4c4.6-4.8,10.1-7.2,16.4-7.2c3.7,0,7,0.9,10.1,2.4c3.1,1.6,5.6,4.2,7.8,7.5
			v-8.6C508.8,28.8,514.5,28.8,514.5,28.8z M491.2,33.4c-3.3,0-6.2,0.9-9,2.4c-2.8,1.7-4.9,3.9-6.5,7c-1.6,3-2.4,6.2-2.4,9.5
			s0.8,6.5,2.4,9.5c1.6,3,3.8,5.4,6.5,7c2.8,1.7,5.7,2.6,8.9,2.6c3.2,0,6.2-0.9,9.1-2.6c2.9-1.7,5-3.9,6.5-6.8s2.3-6.1,2.3-9.7
			c0-5.4-1.7-10-5.2-13.6C500.4,35.3,496.1,33.4,491.2,33.4z"/>
		<path class="st5" d="M572.5,10.6v65.4h-5.7v-8.1c-2.4,3.1-5.2,5.4-8.2,6.9c-3.1,1.6-6.3,2.3-9.9,2.3c-6.4,0-11.8-2.4-16.3-7.2
			s-6.7-10.8-6.7-17.7c0-6.8,2.2-12.6,6.8-17.4c4.6-4.8,10.1-7.2,16.4-7.2c3.7,0,7,0.9,10.1,2.4c3,1.6,5.6,4.2,7.8,7.5V10.6H572.5z
			 M549.3,33.4c-3.3,0-6.2,0.9-9,2.4c-2.8,1.7-4.9,3.9-6.5,7c-1.6,3-2.4,6.2-2.4,9.5s0.8,6.5,2.4,9.5c1.6,3,3.8,5.4,6.5,7
			c2.8,1.7,5.7,2.6,8.9,2.6c3.2,0,6.2-0.9,9.1-2.6c2.9-1.7,5-3.9,6.5-6.8c1.5-2.9,2.3-6.1,2.3-9.7c0-5.4-1.7-10-5.2-13.6
			C558.5,35.3,554.3,33.4,549.3,33.4z"/>
		<path class="st5" d="M624.6,28.8h5.8v37.6c0,6.6-0.5,11.4-1.6,14.5c-1.5,4.4-4.2,7.7-7.9,10c-3.8,2.3-8.3,3.5-13.6,3.5
			c-3.9,0-7.3-0.5-10.4-1.7c-3.1-1.2-5.6-2.7-7.5-4.6c-1.9-1.9-3.7-4.8-5.3-8.4h6.3c1.7,3.1,4,5.4,6.6,6.9c2.8,1.5,6.1,2.2,10.1,2.2
			s7.3-0.7,10-2.3c2.8-1.5,4.7-3.5,5.8-5.7c1.1-2.3,1.7-6.1,1.7-11.3v-2.4c-2.1,2.9-4.9,5.1-8,6.6c-3.2,1.6-6.5,2.3-10.1,2.3
			c-4.2,0-8-1.1-11.7-3.2s-6.4-5-8.5-8.7c-2-3.6-3-7.7-3-12s1-8.4,3.1-12.1c2-3.7,5-6.7,8.7-8.9c3.7-2.2,7.5-3.3,11.6-3.3
			c3.4,0,6.5,0.7,9.5,2.2c3,1.5,5.7,3.8,8.5,7.2L624.6,28.8L624.6,28.8z M607.4,33.4c-3.3,0-6.3,0.9-9.2,2.4c-2.9,1.5-5,3.9-6.6,6.9
			c-1.6,3-2.4,6.1-2.4,9.5c0,5.2,1.6,9.5,5,12.8c3.4,3.4,7.6,5.1,12.8,5.1c5.3,0,9.6-1.7,12.8-5c3.3-3.3,4.9-7.8,4.9-13.2
			c0-3.5-0.7-6.7-2.2-9.5s-3.6-5-6.3-6.6C613.4,34.2,610.5,33.4,607.4,33.4z"/>
		<path class="st5" d="M680.8,60.2l4.9,2.7c-1.6,3.3-3.5,6-5.6,8c-2.1,2-4.5,3.5-7.1,4.6s-5.6,1.6-8.9,1.6c-7.3,0-13.1-2.6-17.2-7.6
			c-4.2-5-6.2-10.8-6.2-17c0-6,1.7-11.3,5.3-16c4.5-6,10.4-8.9,17.8-8.9c7.6,0,13.9,3.1,18.4,9.2c3.3,4.3,4.9,9.7,5,16.1h-40.6
			c0.1,5.4,1.7,10,5,13.4c3.3,3.5,7.2,5.2,12,5.2c2.2,0,4.5-0.4,6.7-1.3c2.1-0.9,4-1.9,5.5-3.3C677.3,65.5,679,63.3,680.8,60.2z
			 M680.8,47.5c-0.8-3.2-1.9-5.9-3.4-7.8c-1.5-1.9-3.5-3.5-5.9-4.7c-2.4-1.2-5-1.8-7.6-1.8c-4.4,0-8.3,1.5-11.4,4.5
			c-2.3,2.1-4.1,5.4-5.3,9.7L680.8,47.5L680.8,47.5z"/>
		<path class="st4" d="M704.3,66.4c1.4,0,2.6,0.5,3.6,1.6s1.5,2.3,1.5,3.8s-0.5,2.8-1.5,3.8c-1,1.1-2.2,1.6-3.6,1.6
			s-2.6-0.5-3.6-1.6c-1-1.1-1.5-2.3-1.5-3.8s0.5-2.8,1.5-3.8C701.8,66.9,702.9,66.4,704.3,66.4z"/>
		<path class="st4" d="M765.3,38.6l-4.6,3c-4-5.5-9.4-8.3-16.3-8.3c-5.5,0-10.1,1.8-13.7,5.5c-3.7,3.7-5.4,8.2-5.4,13.4
			c0,3.4,0.8,6.7,2.5,9.7c1.6,3,4,5.3,6.8,7c3,1.7,6.2,2.6,9.8,2.6c6.6,0,12-2.8,16.2-8.3l4.6,3.2c-2.1,3.4-5.1,6.1-8.7,7.9
			c-3.7,1.9-7.7,2.8-12.4,2.8c-7.1,0-13-2.3-17.7-7.1c-4.7-4.7-7-10.5-7-17.2c0-4.6,1.1-8.8,3.3-12.7c2.1-3.8,5.2-6.9,9.1-9.2
			s8.2-3.3,12.8-3.3c3,0,5.9,0.4,8.7,1.4c2.8,1,5.1,2.2,7,3.7C762.3,34.2,763.9,36.1,765.3,38.6z"/>
		<path class="st4" d="M797.7,27.5c6.9,0,12.7,2.7,17.2,7.9c4.2,4.8,6.2,10.4,6.2,17s-2.2,12.4-6.6,17.2c-4.4,4.8-10,7.3-16.9,7.3
			s-12.5-2.4-16.9-7.3s-6.6-10.6-6.6-17.2c0-6.5,2-12.1,6.2-16.9C785,30.2,790.8,27.5,797.7,27.5z M797.7,33.5
			c-4.8,0-9,1.8-12.4,5.5c-3.4,3.7-5.2,8.2-5.2,13.5c0,3.4,0.8,6.6,2.3,9.5c1.6,3,3.7,5.2,6.4,6.8c2.6,1.6,5.6,2.4,8.9,2.4
			c3.3,0,6.2-0.9,8.9-2.4s4.8-3.8,6.4-6.8s2.3-6.1,2.3-9.5c0-5.3-1.7-9.8-5.2-13.5C806.7,35.4,802.5,33.5,797.7,33.5z"/>
		<path class="st4" d="M832,28.8h5.8v8.1c2-3,4.1-5.2,6.2-6.6c3-1.8,6-2.8,9.3-2.8c2.1,0,4.3,0.4,6.2,1.4c1.9,0.9,3.6,2.1,4.8,3.6
			c1.2,1.5,2.3,3.6,3.3,6.4c1.9-3.7,4.4-6.5,7.2-8.4c2.9-1.9,6-2.9,9.4-2.9c3.2,0,5.9,0.9,8.3,2.4c2.3,1.6,4.2,3.9,5.3,6.9
			c1.1,3,1.7,7.3,1.7,13.2v25.8h-6V50.2c0-5-0.3-8.5-1-10.4c-0.7-1.9-1.8-3.4-3.6-4.6c-1.7-1.2-3.7-1.7-6-1.7
			c-2.9,0-5.4,0.9-7.7,2.6c-2.3,1.7-4.1,4-5.1,6.9c-1.1,2.9-1.6,7.7-1.6,14.5v18.4h-5.8V51.8c0-5.6-0.3-9.6-1-11.6
			c-0.7-2-1.8-3.6-3.6-4.9c-1.7-1.3-3.7-1.8-6-1.8c-2.6,0-5.2,0.9-7.5,2.6c-2.3,1.7-4.1,3.9-5.2,6.8c-1.1,2.9-1.6,7.2-1.6,13.1v19.9
			H832L832,28.8L832,28.8z"/>
	</g>
	<g>
		<path class="st4" d="M166,115.7h5.7v16.6c0,2.7,0.1,4.3,0.2,5.1c0.2,1.3,0.9,2.3,1.7,3c1,0.8,2.2,1.2,3.8,1.2c1.6,0,2.9-0.4,3.7-1
			c0.8-0.7,1.3-1.7,1.5-2.7c0.2-1,0.2-2.8,0.2-5.2v-16.9h5.7v16.1c0,3.7-0.1,6.3-0.4,7.7c-0.3,1.5-0.9,2.8-1.7,3.8
			c-0.9,1-2,1.8-3.4,2.6c-1.4,0.7-3.3,0.9-5.5,0.9c-2.7,0-4.8-0.4-6.2-1c-1.4-0.7-2.5-1.5-3.4-2.7c-0.9-1-1.4-2.2-1.6-3.3
			c-0.4-1.7-0.5-4.4-0.5-7.7v-16.3L166,115.7L166,115.7z"/>
		<path class="st4" d="M195.2,146.4v-30.6h5.6l11.7,20.5v-20.5h5.4v30.6H212l-11.6-20.1v20.1H195.2z"/>
		<path class="st4" d="M223.9,146.4v-30.6h5.7v30.6H223.9z"/>
		<path class="st4" d="M241.6,146.4v-25.5H233v-5.2h22.8v5.2h-8.4v25.5H241.6z"/>
		<path class="st4" d="M259.6,146.4v-30.6h21.2v5.2h-15.4v6.8h14.4v5.2h-14.4v8.4h16v5.2L259.6,146.4L259.6,146.4z"/>
		<path class="st4" d="M286.3,115.7H297c2.4,0,4.2,0.3,5.4,0.6c1.7,0.6,3.1,1.5,4.3,2.8c1.2,1.4,2.2,3,2.7,5c0.7,1.9,1,4.4,1,7.3
			c0,2.6-0.3,4.8-0.9,6.4c-0.8,2.2-1.7,4-3,5.4c-1,1-2.4,1.8-4.1,2.4c-1.3,0.5-3,0.7-5.1,0.7h-10.9V115.7z M292.1,120.9v20.2h4.3
			c1.6,0,2.8-0.1,3.5-0.4c1-0.3,1.7-0.7,2.4-1.3c0.7-0.6,1.1-1.7,1.5-3s0.5-3.2,0.5-5.5s-0.2-4.1-0.5-5.4c-0.4-1.3-1-2.2-1.6-3
			c-0.8-0.7-1.6-1.2-2.7-1.4c-0.8-0.3-2.4-0.4-4.8-0.4h-2.6L292.1,120.9L292.1,120.9z"/>
		<path class="st4" d="M325.1,136.5l5.6-0.6c0.3,1.9,1,3.5,2.1,4.4c1.1,0.9,2.4,1.4,4.2,1.4s3.3-0.5,4.2-1.3c1-0.8,1.4-1.8,1.4-3
			c0-0.7-0.2-1.4-0.7-1.8c-0.4-0.5-1.1-0.9-2.1-1.3c-0.7-0.3-2.3-0.7-4.7-1.4c-3.1-0.8-5.3-1.8-6.5-3c-1.7-1.7-2.6-3.7-2.6-6.2
			c0-1.5,0.4-3,1.2-4.4c0.9-1.4,2.1-2.4,3.6-3.1c1.5-0.7,3.5-1,5.6-1c3.6,0,6.3,0.8,8.1,2.6c1.8,1.7,2.8,4,2.8,6.7l-5.7,0.3
			c-0.2-1.7-0.8-2.7-1.6-3.3c-0.9-0.7-2.1-1-3.7-1c-1.7,0-3,0.4-3.9,1.2c-0.7,0.5-0.9,1.2-0.9,1.8c0,0.7,0.3,1.4,0.9,1.8
			c0.8,0.7,2.5,1.4,5.3,2.1c2.8,0.7,4.9,1.4,6.3,2.2c1.3,0.8,2.4,1.8,3.1,3.1c0.8,1.3,1.2,2.9,1.2,4.9c0,1.7-0.4,3.3-1.4,5
			c-0.9,1.5-2.2,2.7-3.9,3.5c-1.6,0.7-3.8,1.2-6.3,1.2c-3.6,0-6.4-0.9-8.3-2.7C326.6,142.4,325.4,139.8,325.1,136.5z"/>
		<path class="st4" d="M359.6,146.4v-25.5h-8.5v-5.2h22.8v5.2h-8.4v25.5H359.6z"/>
		<path class="st4" d="M400.6,146.4h-6.3l-2.5-6.9h-11.5l-2.4,6.9h-6.2l11.2-30.6h6.2L400.6,146.4z M389.8,134.2l-3.9-11.3
			l-3.9,11.3H389.8z"/>
		<path class="st4" d="M407.2,146.4v-25.5h-8.6v-5.2h22.8v5.2h-8.3v25.5H407.2z"/>
		<path class="st4" d="M425.3,146.4v-30.6h21.2v5.2H431v6.8h14.4v5.2H431v8.4h16v5.2L425.3,146.4L425.3,146.4z"/>
		<path class="st4" d="M450.5,136.5l5.6-0.6c0.3,1.9,1,3.5,2.1,4.4c1.1,0.9,2.4,1.4,4.2,1.4c1.8,0,3.3-0.5,4.2-1.3
			c1-0.8,1.4-1.8,1.4-3c0-0.7-0.2-1.4-0.7-1.8c-0.4-0.5-1.1-0.9-2.1-1.3c-0.7-0.3-2.3-0.7-4.7-1.4c-3.1-0.8-5.3-1.8-6.5-3
			c-1.7-1.7-2.6-3.7-2.6-6.2c0-1.5,0.4-3,1.2-4.4c0.9-1.4,2.1-2.4,3.6-3.1c1.5-0.7,3.5-1,5.6-1c3.6,0,6.3,0.8,8.1,2.6
			c1.8,1.7,2.8,4,2.8,6.7l-5.7,0.4c-0.2-1.7-0.8-2.7-1.6-3.3c-0.9-0.7-2.1-1-3.7-1c-1.7,0-3,0.4-3.9,1.2c-0.7,0.5-0.9,1.2-0.9,1.8
			c0,0.7,0.3,1.4,0.9,1.8c0.8,0.7,2.5,1.4,5.3,2.1c2.8,0.7,4.9,1.4,6.3,2.2c1.3,0.8,2.4,1.8,3.1,3.1c0.8,1.3,1.2,2.9,1.2,4.9
			c0,1.7-0.4,3.3-1.4,5c-0.9,1.5-2.2,2.7-3.9,3.5c-1.6,0.7-3.8,1.2-6.3,1.2c-3.6,0-6.4-0.9-8.3-2.7
			C452,142.4,450.8,139.8,450.5,136.5z"/>
		<path class="st4" d="M515.2,142.7l-3.4,4.5c-1.6-0.8-3.1-1.9-4.7-3.5c-1.2,1.2-2.4,1.9-3.7,2.4c-1.3,0.6-2.8,0.8-4.7,0.8
			c-3.6,0-6.3-1-8-3.2c-1.4-1.7-2.1-3.6-2.1-5.7c0-1.9,0.5-3.7,1.6-5.3c1.1-1.7,2.7-2.9,4.9-4c-1-1.3-1.7-2.4-2.2-3.6
			c-0.5-1.2-0.8-2.2-0.8-3.2c0-1.8,0.7-3.5,2.1-4.8c1.4-1.3,3.4-1.9,6-1.9c2.5,0,4.4,0.7,5.9,2.1c1.4,1.4,2.1,3,2.1,5
			c0,1.3-0.3,2.4-1.1,3.5c-0.6,1.2-2.1,2.4-4.2,3.8l4,5.7c0.4-0.9,0.9-2.1,1.2-3.5l5,1.2c-0.5,1.8-1,3.2-1.3,4.1s-0.8,1.7-1.2,2.2
			c0.6,0.6,1.4,1.3,2.4,1.9C514,141.9,514.7,142.4,515.2,142.7z M498.1,132.4c-1.3,0.7-2.2,1.5-2.8,2.4c-0.7,0.9-1,1.9-1,2.9
			c0,1.3,0.4,2.3,1.2,3.1s1.8,1.2,3.1,1.2c0.9,0,1.7-0.3,2.5-0.6c0.8-0.4,1.6-0.9,2.6-1.8L498.1,132.4z M500.1,126.1l1.5-1.2
			c1.1-0.9,1.6-1.8,1.6-2.7s-0.2-1.4-0.8-1.9c-0.5-0.6-1.2-0.8-2.2-0.8c-0.9,0-1.5,0.3-2.1,0.7c-0.5,0.5-0.8,1-0.8,1.7
			c0,0.7,0.4,1.7,1.3,2.7L500.1,126.1z"/>
		<path class="st4" d="M548.2,135.2l5.6,1.8c-0.9,3.3-2.3,5.8-4.3,7.4s-4.6,2.4-7.6,2.4c-3.8,0-6.9-1.4-9.4-4.1
			c-2.5-2.8-3.7-6.6-3.7-11.3c0-5.1,1.2-9,3.7-12c2.5-2.8,5.7-4.3,9.8-4.3c3.5,0,6.4,1.2,8.6,3.3c1.3,1.3,2.3,3.2,2.9,5.7l-5.7,1.5
			c-0.3-1.7-1.1-2.9-2.2-3.7c-1.1-0.9-2.4-1.4-3.9-1.4c-2.2,0-3.9,0.8-5.2,2.4c-1.3,1.7-2,4.3-2,7.9c0,3.8,0.7,6.6,2,8.2
			c1.3,1.7,3,2.4,5.1,2.4c1.5,0,2.8-0.6,4-1.7C547,139,547.8,137.4,548.2,135.2z"/>
		<path class="st4" d="M584.7,146.4h-6.3l-2.5-6.9h-11.5l-2.4,6.9h-6.2l11.2-30.6h6.2L584.7,146.4z M574,134.2l-3.9-11.3l-3.9,11.3
			H574z"/>
		<path class="st4" d="M587.9,146.4v-30.6h5.6l11.7,20.5v-20.5h5.4v30.6h-5.9l-11.6-20.1v20.1H587.9z"/>
		<path class="st4" d="M642.7,146.4h-6.3l-2.5-6.9h-11.5l-2.4,6.9h-6.2l11.2-30.6h6.2L642.7,146.4z M632,134.2l-3.9-11.3l-3.9,11.3
			H632z"/>
		<path class="st4" d="M645.7,115.7h10.6c2.4,0,4.2,0.3,5.4,0.6c1.7,0.6,3.1,1.5,4.3,2.8c1.2,1.4,2.2,3,2.7,5c0.7,1.9,1,4.4,1,7.3
			c0,2.6-0.3,4.8-0.9,6.4c-0.8,2.2-1.7,4-3,5.4c-1,1-2.4,1.8-4.1,2.4c-1.3,0.5-3,0.7-5.1,0.7h-10.9V115.7L645.7,115.7z M651.5,120.9
			v20.2h4.3c1.6,0,2.8-0.1,3.5-0.4c1-0.3,1.7-0.7,2.4-1.3c0.6-0.6,1.1-1.7,1.5-3s0.5-3.2,0.5-5.5s-0.2-4.1-0.5-5.4
			c-0.4-1.3-1-2.2-1.6-3c-0.8-0.7-1.6-1.2-2.7-1.4c-0.8-0.3-2.4-0.4-4.8-0.4h-2.6L651.5,120.9L651.5,120.9z"/>
		<path class="st4" d="M700.4,146.4h-6.3l-2.5-6.9h-11.5l-2.4,6.9h-6.2l11.2-30.6h6.2L700.4,146.4z M689.8,134.2l-3.9-11.3
			l-3.9,11.3H689.8z"/>
	</g>
	<g>
		<rect x="814.5" y="107.2" class="st6" width="84.5" height="42.2"/>
		<rect x="835.6" y="107.2" class="st3" width="42.2" height="42.2"/>
		<path class="st6" d="M856.7,111.2l-2.9,5.4c-0.4,0.5-0.9,0.5-1.5,0.2l-2.1-1.1l1.5,8.2c0.4,1.5-0.7,1.5-1.3,0.8l-3.6-4.1l-0.6,2.1
			c-0.1,0.3-0.4,0.5-0.8,0.5l-4.6-1l1.2,4.4c0.3,1,0.5,1.4-0.3,1.6L840,129l7.9,6.4c0.3,0.3,0.5,0.7,0.4,1.1l-0.7,2.3
			c2.7-0.3,5.1-0.8,7.9-1.1c0.3,0,0.6,0.4,0.6,0.6l-0.4,8.3h1.4l-0.2-8.3c0-0.3,0.4-0.7,0.6-0.6c2.7,0.3,5.1,0.7,7.9,1.1l-0.7-2.3
			c-0.1-0.4,0.1-0.8,0.4-1.1l7.9-6.4l-1.6-0.8c-0.7-0.3-0.5-0.6-0.3-1.6l1.2-4.4l-4.6,1c-0.5,0.1-0.7-0.2-0.8-0.5l-0.6-2.1l-3.6,4.1
			c-0.5,0.6-1.5,0.6-1.3-0.8l1.5-8.2l-2.1,1.1c-0.5,0.4-1.2,0.4-1.5-0.2"/>
	</g>
	<g>
		<rect x="717.1" y="107.2" class="st7" width="80.3" height="42.2"/>
		<path class="st3" d="M717.1,139.7h80.3v-3.3h-80.3V139.7z M717.1,133.2h80.3V130h-80.3V133.2z M717.1,146.2h80.3V143h-80.3V146.2z
			 M717.1,110.4v3.2h80.3v-3.2H717.1z M717.1,120.2h80.3V117h-80.3V120.2z M717.1,126.7h80.3v-3.3h-80.3V126.7z"/>
		<rect x="717.1" y="107.2" class="st8" width="32.1" height="22.7"/>
		<path class="st3" d="M727.1,111.7l-0.4,1h-1.1l0.8,0.6l-0.4,1l0.8-0.6l0.8,0.6l-0.4-1l0.8-0.6h-1.1v-1H727.1z M723.1,111.7l-0.4,1
			h-1.1l0.8,0.6l-0.4,1l0.8-0.6l0.8,0.6l-0.4-1l0.8-0.6h-1.1v-1H723.1z M727.1,122.8l-0.4,1h-1.1l0.8,0.6l-0.4,1l0.8-0.6l0.8,0.6
			l-0.4-1l0.8-0.6h-1.1v-1H727.1z M727.1,119.1l-0.4,1h-1.1l0.8,0.6l-0.4,1l0.8-0.6l0.8,0.6l-0.4-1l0.8-0.6h-1.1v-1H727.1z
			 M727.5,127.4l-0.4-1l-0.4,1h-1.1l0.8,0.6l-0.4,1l0.8-0.6l0.8,0.6l-0.4-1l0.8-0.6H727.5z M723.1,108.1l-0.4,1h-1.1l0.8,0.6l-0.4,1
			l0.8-0.6l0.8,0.6l-0.4-1l0.8-0.6h-1.1v-1H723.1z M727.1,115.4l-0.4,1h-1.1l0.8,0.6l-0.4,1l0.8-0.6l0.8,0.6l-0.4-1l0.8-0.6h-1.1v-1
			H727.1z M731.2,115.4l-0.4,1h-1.1l0.8,0.6l-0.4,1l0.8-0.6l0.8,0.6l-0.4-1l0.8-0.6H731v-1H731.2z M727.1,108.1l-0.4,1h-1.1l0.8,0.6
			l-0.4,1l0.8-0.6l0.8,0.6l-0.4-1l0.8-0.6h-1.1v-1H727.1z M731.2,119.1l-0.4,1h-1.1l0.8,0.6l-0.4,1l0.8-0.6l0.8,0.6l-0.4-1l0.8-0.6
			H731v-1H731.2z M731.4,127.4l-0.4-1l-0.4,1h-1.1l0.8,0.6l-0.4,1l0.8-0.6l0.8,0.6l-0.4-1l0.8-0.6H731.4z M731.2,122.8l-0.4,1h-1.1
			l0.8,0.6l-0.4,1l0.8-0.6l0.8,0.6l-0.4-1l0.8-0.6H731v-1H731.2z M719.2,119.1l-0.4,1h-1.1l0.8,0.6l-0.4,1l0.8-0.6l0.8,0.6l-0.4-1
			l0.8-0.6H719v-1H719.2z M731.2,111.7l-0.4,1h-1.1l0.8,0.6l-0.4,1l0.8-0.6l0.8,0.6l-0.4-1l0.8-0.6H731v-1H731.2z M719.2,122.8
			l-0.4,1h-1.1l0.8,0.6l-0.4,1l0.8-0.6l0.8,0.6l-0.4-1l0.8-0.6H719v-1H719.2z M746.4,110.6l0.8-0.6l0.8,0.6l-0.4-1l0.8-0.6h-1.1
			l-0.4-1l-0.4,1h-1.1l0.8,0.6v1H746.4z M719.2,115.4l-0.4,1h-1.1l0.8,0.6l-0.4,1l0.8-0.6l0.8,0.6l-0.4-1l0.8-0.6H719v-1H719.2z
			 M719.4,127.4l-0.4-1l-0.4,1h-1.1l0.8,0.6l-0.4,1l0.8-0.6l0.8,0.6l-0.4-1l0.8-0.6H719.4z M723.5,127.4l-0.4-1l-0.4,1h-1.1l0.8,0.6
			l-0.4,1l0.8-0.6l0.8,0.6l-0.4-1l0.8-0.6H723.5z M723.1,122.8l-0.4,1h-1.1l0.8,0.6l-0.4,1l0.8-0.6l0.8,0.6l-0.4-1l0.8-0.6h-1.1v-1
			H723.1z M723.1,119.1l-0.4,1h-1.1l0.8,0.6l-0.4,1l0.8-0.6l0.8,0.6l-0.4-1l0.8-0.6h-1.1v-1H723.1z M747.2,111.7l-0.4,1h-1.1
			l0.8,0.6l-0.4,1l0.8-0.6l0.8,0.6l-0.4-1l0.8-0.6H747v-1H747.2z M723.1,115.4l-0.4,1h-1.1l0.8,0.6l-0.4,1l0.8-0.6l0.8,0.6l-0.4-1
			l0.8-0.6h-1.1v-1H723.1z M719.2,108.1l-0.4,1h-1.1l0.8,0.6l-0.4,1l0.8-0.6l0.8,0.6l-0.4-1l0.8-0.6H719v-1H719.2z M719.2,111.7
			l-0.4,1h-1.1l0.8,0.6l-0.4,1l0.8-0.6l0.8,0.6l-0.4-1l0.8-0.6H719v-1H719.2z M743.3,119.1l-0.4,1h-1.1l0.8,0.6l-0.4,1l0.8-0.6
			l0.8,0.6l-0.4-1l0.8-0.6h-1.1v-1H743.3z M743.3,111.7l-0.4,1h-1.1l0.8,0.6l-0.4,1l0.8-0.6l0.8,0.6l-0.4-1l0.8-0.6h-1.1v-1H743.3z
			 M743.3,115.4l-0.4,1h-1.1l0.8,0.6l-0.4,1l0.8-0.6l0.8,0.6l-0.4-1l0.8-0.6h-1.1v-1H743.3z M743.5,127.4l-0.4-1l-0.4,1h-1.1
			l0.8,0.6l-0.4,1l0.8-0.6l0.8,0.6l-0.4-1l0.8-0.6H743.5z M743.3,122.8l-0.4,1h-1.1l0.8,0.6l-0.4,1l0.8-0.6l0.8,0.6l-0.4-1l0.8-0.6
			h-1.1v-1H743.3z M747.6,127.4l-0.4-1l-0.4,1h-1.1l0.8,0.6l-0.4,1l0.8-0.6l0.8,0.6l-0.4-1l0.8-0.6H747.6z M747.2,119.1l-0.4,1h-1.1
			l0.8,0.6l-0.4,1l0.8-0.6l0.8,0.6l-0.4-1l0.8-0.6H747v-1H747.2z M747.2,115.4l-0.4,1h-1.1l0.8,0.6l-0.4,1l0.8-0.6l0.8,0.6l-0.4-1
			l0.8-0.6H747v-1H747.2z M747.2,122.8l-0.4,1h-1.1l0.8,0.6l-0.4,1l0.8-0.6l0.8,0.6l-0.4-1l0.8-0.6H747v-1H747.2z M743.3,108.1
			l-0.4,1h-1.1l0.8,0.6l-0.4,1l0.8-0.6l0.8,0.6l-0.4-1l0.8-0.6h-1.1v-1H743.3z M739.2,108.1l-0.4,1h-1.1l0.8,0.6l-0.4,1l0.8-0.6
			l0.8,0.6l-0.4-1l0.8-0.6H739v-1H739.2z M731.2,108.1l-0.4,1h-1.1l0.8,0.6l-0.4,1l0.8-0.6l0.8,0.6l-0.4-1l0.8-0.6H731v-1H731.2z
			 M735.2,111.7l-0.4,1h-1.1l0.8,0.6l-0.4,1l0.8-0.6l0.8,0.6l-0.4-1l0.8-0.6H735v-1H735.2z M735.2,115.4l-0.4,1h-1.1l0.8,0.6l-0.4,1
			l0.8-0.6l0.8,0.6l-0.4-1l0.8-0.6H735v-1H735.2z M735.2,119.1l-0.4,1h-1.1l0.8,0.6l-0.4,1l0.8-0.6l0.8,0.6l-0.4-1l0.8-0.6H735v-1
			H735.2z M735.2,122.8l-0.4,1h-1.1l0.8,0.6l-0.4,1l0.8-0.6l0.8,0.6l-0.4-1l0.8-0.6H735v-1H735.2z M735.6,127.4l-0.4-1l-0.4,1h-1.1
			l0.8,0.6l-0.4,1l0.8-0.6l0.8,0.6l-0.4-1l0.8-0.6H735.6z M739.2,115.4l-0.4,1h-1.1l0.8,0.6l-0.4,1l0.8-0.6l0.8,0.6l-0.4-1l0.8-0.6
			H739v-1H739.2z M735.2,108.1l-0.4,1h-1.1l0.8,0.6l-0.4,1l0.8-0.6l0.8,0.6l-0.4-1l0.8-0.6H735v-1H735.2z M739.2,111.7l-0.4,1h-1.1
			l0.8,0.6l-0.4,1l0.8-0.6l0.8,0.6l-0.4-1l0.8-0.6H739v-1H739.2z M739.2,119.1l-0.4,1h-1.1l0.8,0.6l-0.4,1l0.8-0.6l0.8,0.6l-0.4-1
			l0.8-0.6H739v-1H739.2z M739.2,122.8l-0.4,1h-1.1l0.8,0.6l-0.4,1l0.8-0.6l0.8,0.6l-0.4-1l0.8-0.6H739v-1H739.2z M739.6,127.4
			l-0.4-1l-0.4,1h-1.1l0.8,0.6l-0.4,1l0.8-0.6l0.8,0.6l-0.4-1l0.8-0.6H739.6z"/>
	</g>
</g>
</svg>
